/* XPM */
static char * cima_baixo_xpm[] = {
"40 36 179 2",
"  	c #A0DB2E",
". 	c #3C2E2B",
"+ 	c #37302B",
"@ 	c #3E312A",
"# 	c #968265",
"$ 	c #8C785D",
"% 	c #A48D6D",
"& 	c #7C6A53",
"* 	c #AC9471",
"= 	c #C59B6A",
"- 	c #C3A77D",
"; 	c #644B36",
"> 	c #D6AC75",
", 	c #7E6343",
"' 	c #DBB37E",
") 	c #846E52",
"! 	c #DBAE75",
"~ 	c #997C59",
"{ 	c #E4B579",
"] 	c #D0AA78",
"^ 	c #A6855D",
"/ 	c #E9BB7E",
"( 	c #BD9C71",
"_ 	c #B3936A",
": 	c #EABE83",
"< 	c #E3AB6E",
"[ 	c #C8A474",
"} 	c #907453",
"| 	c #6E5A44",
"1 	c #E6B97D",
"2 	c #D6A86F",
"3 	c #7A6348",
"4 	c #6C533C",
"5 	c #DAA265",
"6 	c #C5915A",
"7 	c #634A39",
"8 	c #836A4B",
"9 	c #B38253",
"0 	c #9D7C55",
"a 	c #D99F5F",
"b 	c #9D724B",
"c 	c #9E815F",
"d 	c #E3B173",
"e 	c #D49C62",
"f 	c #CB8D55",
"g 	c #8C6A46",
"h 	c #B48F62",
"i 	c #CB945C",
"j 	c #C68B54",
"k 	c #7C5B3E",
"l 	c #C89F6D",
"m 	c #A77B4F",
"n 	c #57432F",
"o 	c #5B4333",
"p 	c #D69B5D",
"q 	c #AE8053",
"r 	c #D4A671",
"s 	c #EEC68D",
"t 	c #D1955A",
"u 	c #D7A067",
"v 	c #BB8351",
"w 	c #8B6444",
"x 	c #B2764B",
"y 	c #F2CE96",
"z 	c #C18452",
"A 	c #DDA96D",
"B 	c #F4D19A",
"C 	c #A4734D",
"D 	c #7C523A",
"E 	c #B37C4D",
"F 	c #846141",
"G 	c #564333",
"H 	c #D09157",
"I 	c #D9A56D",
"J 	c #765A3F",
"K 	c #845B3C",
"L 	c #5D4B37",
"M 	c #44382E",
"N 	c #533B2D",
"O 	c #C39364",
"P 	c #FAD69E",
"Q 	c #543C31",
"R 	c #966A46",
"S 	c #332B28",
"T 	c #BA976F",
"U 	c #533632",
"V 	c #322926",
"W 	c #755941",
"X 	c #724B35",
"Y 	c #4D3430",
"Z 	c #8C6C4C",
"` 	c #4C382B",
" .	c #27211F",
"..	c #442D2A",
"+.	c #673D38",
"@.	c #4A342E",
"#.	c #43312D",
"$.	c #794D36",
"%.	c #2C231F",
"&.	c #3D2B25",
"*.	c #72433B",
"=.	c #5C3B34",
"-.	c #9B5E41",
";.	c #6D4A35",
">.	c #4C4136",
",.	c #4A3E32",
"'.	c #4D4238",
").	c #463A31",
"!.	c #A36543",
"~.	c #935D3D",
"{.	c #9A623E",
"].	c #83553B",
"^.	c #8B543E",
"/.	c #AA6A45",
"(.	c #DDB782",
"_.	c #E2C08E",
":.	c #B47146",
"<.	c #845D44",
"[.	c #CC995F",
"}.	c #D1A36B",
"|.	c #9B5F3D",
"1.	c #8C5B3E",
"2.	c #2E2927",
"3.	c #A16A42",
"4.	c #9B6549",
"5.	c #915F4A",
"6.	c #BA7E50",
"7.	c #9D6B4A",
"8.	c #835444",
"9.	c #865749",
"0.	c #754B3A",
"a.	c #936244",
"b.	c #7A4E41",
"c.	c #C17E4F",
"d.	c #94624D",
"e.	c #6D4B39",
"f.	c #9B6243",
"g.	c #73492E",
"h.	c #694436",
"i.	c #A77550",
"j.	c #8C5541",
"k.	c #824D3D",
"l.	c #925740",
"m.	c #AB744C",
"n.	c #7A5540",
"o.	c #7C4C3B",
"p.	c #94603E",
"q.	c #8C5941",
"r.	c #64422B",
"s.	c #945C41",
"t.	c #79473C",
"u.	c #B8764A",
"v.	c #644335",
"w.	c #AB6F48",
"x.	c #7C5C41",
"y.	c #B47C51",
"z.	c #73523B",
"A.	c #AF7F53",
"B.	c #C48E59",
"C.	c #9C6A47",
"D.	c #613D36",
"E.	c #A56E4A",
"F.	c #6E4339",
"G.	c #AC784C",
"H.	c #BC7E4E",
"I.	c #51332F",
"J.	c #BC8859",
"K.	c #272223",
"L.	c #2A2423",
"M.	c #412925",
"N.	c #A97650",
"O.	c #D0A880",
"P.	c #C59568",
"Q.	c #C28F61",
"R.	c #D49E68",
"S.	c #B16E45",
"T.	c #5A382F",
"U.	c #714C40",
"V.	c #322623",
"      .                               +                               @         ",
"      # $                             % &                             *         ",
"      = -                           ; > *                           , ' #       ",
"    ) ! ' &                         ~ { ]                           ^ / (       ",
"    _ : < ^                         [ / < }                       | ' 1 2 3     ",
"  4 > / 5 6 7                     8 { 1 5 9                       0 1 { a b     ",
"  c d 1 e f g                     h d 1 i j k                     l < { f m n   ",
"o = p : 1 p q                   4 r e s d t b                   8 2 5 s u v w   ",
"n x 5 y { f 9                   ; z A B A f C                   D f { B 6 E F   ",
"G v A y d H g                   4 j d B I i J                   K H / B e v L   ",
"M 4 q B / j 7                   N J O P d v Q                   G k r P u R +   ",
"S . 7 T ^ k U                   V S W ( 0 X Y                   V . Z T g `  .  ",
"..+.@ X @.#.Q S                 V U . $.+ @.N                   S U #.X %.&.%.  ",
"#.*.=.-.;.D X M >.,.'.,.,.>.,.,.).+.=.!.o ~.o ,.>.,.'.,.,.>.>.>.).+.=.{.` ].@   ",
". ^.]./.X D K = (.I _.r i ' r > _ w D :.o ~.<.r (.2 : l [.(.}.> # |.K {.` 1.@   ",
"2.D 3.4.D 1.D D 5.6.7.8.8.9.8.9.0.~.3.a.$.~.X b.4.c.d.8.8.9.8.9.e.f.3.1.g.].&.  ",
"2.h.i.<.D 1.].f.!.j.|.k.l.8.l./.^.8.m.n.o.p.D !.|.^.-.o.-.o.-./.D q.i.0.D ~.r.  ",
"#.e.i.a.^.!.h.; *.+.^.k.8.-.-.o.o 7 m 8.s.!.].;.0.+.j.t.j.-.s.t.N n.i.n.~.~.X   ",
"Q k b <.{.u.h.S S U U U U *.v.S . 7 C 8./.w.D 2.. U U U U 0.=.V . x.i.D /.~.X   ",
"N K y.<.f.v j.@ V V 2.2.V 2.2.2.Q w 9 z.m.x D . V V S 2.2.2.S 2.v.R A.e.x {.$.  ",
"Q 1.B.F a.6.^.                  v.a.i 4 m.x $.                  ;.C.6 L x !.X   ",
"Q ; k 0.D v X                   v.o p.v.~.E D.                  ;.o {.N 3.E.U   ",
"G h.s.a.h.6.F.                  v.h.E.D o.y.D.                  ;.v.m.Q q.C U   ",
"@.Q f.G.h.6.*.                  ` Q m.R $.y.D.                  U =.H.D j.m.I.  ",
"..Y j.J.;.E U 2.K.K.K.L.K.L.K.K.. U C.m o.m.U 2.K.K.L.K.L.L.K.K.S U m.w q.R ..  ",
"#.Y t.9 e.G.,.3 $ 8 <., , 8 8 8 W Y j.m D C o 8 $ 8 , <.3 8 8 ) L @.4.w 1.w M.  ",
"#.U *.N.h.7.o J.O.P.i f J.Q.R.< A.#.k.C 0.w 7 O ] Q.H z J.O R.< R @.1.1.$.$.&.  ",
"#.=.v.m.G 0.D.o.k.b.-.j.t.o.!.S.1.U 0.C.G F.+.k.o.8.-.8.o.k./.S.].@.K K N T.M.  ",
"#.D.+.!.@.=.D :.:.:.j.*.-.:.!.*.D.Y X 0.#.D.q.S.S.S.8.+.!.S.-.+.=.@.k.g.M.I.M.  ",
"..=.+./.=.@.+ #.D.t.*.+.b.t.t.Y . S +.+.U #.@ M +.k.+.U.t.t.*.Y S S $.k...S V   ",
". Y v.s.=.Y #.2.. . . #.. ... S S S =.*.U U . S ....#.. ... ..S V V t.0.@....   ",
"  . =.0.@.U Y                   S S D.+.Y U #.                  V S F.=.M.I...  ",
"  2.#.=.S #.#.                    S U U S #.@                     S =.#.V.&..   ",
"  S S ..2.S S                     S @ . S S S                     S ..V  .L.    ",
"    . 2.S S                         S S S S                         2.L.2.K.    ",
"                                                                                "};
