/* XPM */
static char * curva_xpm[] = {
"40 36 171 2",
"  	c #A0DB2E",
". 	c #2E2927",
"+ 	c #322B28",
"@ 	c #262222",
"# 	c #584D40",
"$ 	c #A28B6B",
"% 	c #C2A87F",
"& 	c #D5B281",
"* 	c #54493D",
"= 	c #45382E",
"- 	c #74593D",
"; 	c #9F7B51",
"> 	c #D2A46B",
", 	c #F2C486",
"' 	c #FAD49A",
") 	c #E7C896",
"! 	c #BEA37B",
"~ 	c #907D61",
"{ 	c #493D34",
"] 	c #70614E",
"^ 	c #8F7656",
"/ 	c #B48956",
"( 	c #CB9E66",
"_ 	c #DCB077",
": 	c #E4B87D",
"< 	c #EFC184",
"[ 	c #A88E6B",
"} 	c #826A50",
"| 	c #4E443B",
"1 	c #42312C",
"2 	c #5B4533",
"3 	c #81694C",
"4 	c #D9B581",
"5 	c #C59963",
"6 	c #CFAE7E",
"7 	c #D4A264",
"8 	c #CA995F",
"9 	c #D8A05F",
"0 	c #E3AE6D",
"a 	c #D2AE7C",
"b 	c #907351",
"c 	c #6C543C",
"d 	c #554433",
"e 	c #765D40",
"f 	c #B88B59",
"g 	c #D5AA74",
"h 	c #CCA36D",
"i 	c #C2955F",
"j 	c #C59157",
"k 	c #DAA362",
"l 	c #D09D60",
"m 	c #BB8552",
"n 	c #7B5E40",
"o 	c #3B2A25",
"p 	c #674D35",
"q 	c #AD8353",
"r 	c #DCAB6E",
"s 	c #ECBE82",
"t 	c #D7B07C",
"u 	c #BF8A58",
"v 	c #B47B4B",
"w 	c #D3975B",
"x 	c #D39A5D",
"y 	c #C58651",
"z 	c #B68654",
"A 	c #73543A",
"B 	c #A07546",
"C 	c #BA7945",
"D 	c #D09657",
"E 	c #DEC08F",
"F 	c #E9C691",
"G 	c #EBC48B",
"H 	c #C27A49",
"I 	c #5B4836",
"J 	c #241E1C",
"K 	c #493426",
"L 	c #8E5A35",
"M 	c #B4703F",
"N 	c #B57244",
"O 	c #BA7546",
"P 	c #C28D54",
"Q 	c #CC9354",
"R 	c #DEB57D",
"S 	c #EFCD98",
"T 	c #EBCB97",
"U 	c #D19957",
"V 	c #C4824D",
"W 	c #2B2523",
"X 	c #AD7C4F",
"Y 	c #E6C591",
"Z 	c #AE7345",
"` 	c #B47548",
" .	c #CC945A",
"..	c #3D312B",
"+.	c #4D3A2C",
"@.	c #9A6840",
"#.	c #BC7C4B",
"$.	c #4F4031",
"%.	c #3C2D2A",
"&.	c #4A332D",
"*.	c #543531",
"=.	c #5B3632",
"-.	c #4B2F2C",
";.	c #342523",
">.	c #312A27",
",.	c #655644",
"'.	c #B2845C",
").	c #7F684F",
"!.	c #65513A",
"~.	c #654E38",
"{.	c #623B36",
"].	c #74443A",
"^.	c #703F3B",
"/.	c #683631",
"(.	c #382322",
"_.	c #29221F",
":.	c #5D3A2E",
"<.	c #95623C",
"[.	c #A1633E",
"}.	c #845537",
"|.	c #5E3934",
"1.	c #644534",
"2.	c #774C3B",
"3.	c #79523B",
"4.	c #7C5340",
"5.	c #845541",
"6.	c #8B523E",
"7.	c #6F4334",
"8.	c #945C3C",
"9.	c #9A633F",
"0.	c #AB6A44",
"a.	c #553D31",
"b.	c #9D6540",
"c.	c #523C2E",
"d.	c #A96744",
"e.	c #9B5F42",
"f.	c #A46F45",
"g.	c #BF7748",
"h.	c #8A5844",
"i.	c #844D3D",
"j.	c #C38D5A",
"k.	c #895939",
"l.	c #4E3430",
"m.	c #A36642",
"n.	c #5A342C",
"o.	c #52412F",
"p.	c #865843",
"q.	c #452E2B",
"r.	c #7C4B3B",
"s.	c #6B3C34",
"t.	c #7C473E",
"u.	c #442C26",
"v.	c #5D402F",
"w.	c #875839",
"x.	c #CA8B53",
"y.	c #6F403B",
"z.	c #552F2A",
"A.	c #92563A",
"B.	c #B36E45",
"C.	c #653631",
"D.	c #64342F",
"E.	c #7C4535",
"F.	c #9A5D3C",
"G.	c #663D2E",
"H.	c #C48A4F",
"I.	c #55312D",
"J.	c #744337",
"K.	c #A47B4A",
"L.	c #6E3F39",
"M.	c #713C32",
"N.	c #27211E",
"                                                                                ",
"                                    . + . @                                     ",
"                                @ # $ % & $ * @                                 ",
"                              = - ; > , ' ) ! ~ *                               ",
"                          { ] ^ / ( > _ : < < _ [ } |                           ",
"                      1 2 3 ! 4 5 5 6 6 7 8 9 0 < a b c =                       ",
"                    d e f g a h i 5 6 6 5 j j 8 k k l m n d                     ",
"                o p q r s 4 ( j j ( t & h u v v w x y y x z A {                 ",
"            . d B ( _ g m C D k r r & E F G r 9 7 k k w H H x q I .             ",
"            J K L M N O P Q D 7 R F S T E R r U V V x x y y l q 2 .             ",
"            W d X Q N M m j Q 7 R Y F Y Y R h m Z `  .k k z A = + +             ",
"            + ..d 2 +.K +.p @.P t E E E E & h u m m #.B A $.%.+ + +             ",
"            + %.&.*.=.-.;.>.+.2 ,.} '.'.).,.!.!.c ~.2 +.+ @ . + + +             ",
"            + ..{.].^./.*.(.W _.;.:.<.[.}.|.o @ W o 1.2.3.1.= + + +             ",
"            >.1 {.4.5.6.6.7.o o 7.8.9.0.N 9.a.. . a.b.H H @.c.. + +             ",
"            + %.*.2.d.H H e.|.1.f.#.[.8.8.}.2 = + +.9.g.H b.c.. . +             ",
"            + + . c.h.` H 0.i.h.j.j.3.*.=.].<.k.+.l.9.g.g.m.1.1 %.+             ",
"            + + ..&.{.h.j.j.h.h.j./ I %.n.].<.k.c.o.@.g.O N O <.{ .             ",
"            J K L <.a.2 / j.h.h.j.j.p.{.{.].8.d.0.N C d.i.5.0.b.a..             ",
"            W c.b.@.a.I / j.h.h.j.f ~.q.|.r.d.#.m y #.d.i.5.d.@.a..             ",
"            . c.b.m.s.2.u 9  .Q l f 2 %.|.5.d.V 8  .` e.t.i.0.b.a..             ",
"            . d b.b.:.u.v.w.q x.V 9.K W %.y.m.H y x.x.v i.^.5.].&.+             ",
"            . d m.9.c._.(.z.A.O V Z :.(.W 1 r.m.B.H l j.5.C.s.=...+             ",
"            . l.w.6.&.%.D.E.F.H D x.b.G.(.;.n.r.m.V x j.p.{.{.*.%..             ",
"            >.1 {.{...q.|.t.A.d.H.Q V <.c.+ I.J.F.N Q z 3.|.{.*.o W             ",
"            . 1 {.{.1 ..|.].^.5.q Q U K.c.+ *.].8.N u ; d %.*.=.%.W             ",
"            . 1 {.{.1 q.|.L.,.t.[.M Q Z +._.-.J.8.`  .q d %.{.{.1 +             ",
"            J o {.L.C.z.%.&.C.5.[.V Q K.+.J J K }.F.r.|...1 {.{.1 >.            ",
"            . %.n./.C.z.;.o =.i.M g.H 9.&.J J (.n.s.s.*.%.%.{.{.1 +             ",
"            + %.I.C./.z.;.(.=.i.M O C d.].-.J (.=.{.&.o . . o %.+ +             ",
"            + + %.z.D.z.;.;.n.i.0.B.e.6.4.{.%.u.{.{.%.+ &.&.%.. + +             ",
"              + + + q.u.;.;.z.M.i.6.M.{.*.&.%.1 {.{.1 %.{.{.... +               ",
"                + + + + + %.q.I.{.C.z.u.;.@ W o *.l...+ &.1 o W                 ",
"                + + + + + + + ..a.I.;.J J J J N.W . >.+ + >.. W                 ",
"                    + + +     + + . W J J J J _._._.W + + +                     ",
"                                                                                "};
