/* XPM */
static char *result[] = {
/* columns rows colors chars-per-pixel */
"40 36 134 2 ",
"   c #99D643",
".  c #99D742",
"X  c #9BD942",
"o  c #9CDB42",
"O  c #9CDB43",
"+  c #97D343",
"@  c #99D542",
"#  c #95CE43",
"$  c #97D242",
"%  c #9AD842",
"&  c #94CB42",
"*  c #96CF42",
"=  c #9AD742",
"-  c #93C942",
";  c #95CE42",
":  c #99D642",
">  c #93CB42",
",  c #95CF42",
"<  c #95CF43",
"1  c #97D243",
"2  c #96CF44",
"3  c #95CD44",
"4  c #96D043",
"5  c #96CE44",
"6  c #97D143",
"7  c #9BDA42",
"8  c #99D245",
"9  c #9AD444",
"0  c #9BD842",
"q  c #9BD546",
"w  c #9BD645",
"e  c #9BD943",
"r  c #9BDA43",
"t  c #9BD646",
"y  c #9BD745",
"u  c #9CDA42",
"i  c #9AD645",
"p  c #9AD744",
"a  c #9ADA43",
"s  c #9BDA45",
"d  c #9CDB46",
"f  c #9DDB47",
"g  c #9DDB46",
"h  c #9CDA44",
"j  c #9AD743",
"k  c #9ADA42",
"l  c #99D944",
"z  c #98D948",
"x  c #99DA4C",
"c  c #9DDC4E",
"v  c #9DDC4C",
"b  c #9BDA47",
"n  c #9AD943",
"m  c #97D342",
"M  c #98D542",
"N  c #9AD942",
"B  c #97D848",
"V  c #98D94C",
"C  c #9BDB4F",
"Z  c #9CDB4D",
"A  c #9AD947",
"S  c #94CD43",
"D  c #96D042",
"F  c #98D844",
"G  c #98D846",
"H  c #99D948",
"J  c #99D945",
"K  c #99D943",
"L  c #9AD941",
"P  c #99D844",
"I  c #92C942",
"U  c #95CD42",
"Y  c #9ADA41",
"T  c #9BDA41",
"R  c #9CDA43",
"E  c #9CDB44",
"W  c #9EDC46",
"Q  c #9DDC44",
"!  c #98D243",
"~  c #9BDA44",
"^  c #9BDA48",
"/  c #9CDB4A",
"(  c #9EDD4B",
")  c #9EDD4A",
"_  c #9CDB47",
"`  c #9AD945",
"'  c #98D84C",
"]  c #99D950",
"[  c #9CDC51",
"{  c #9CDC4F",
"}  c #99D94A",
"|  c #98D845",
" . c #97CF44",
".. c #96D74C",
"X. c #97D850",
"o. c #9ADB50",
"O. c #9BDB4E",
"+. c #98D849",
"@. c #97D845",
"#. c #98D244",
"$. c #99D345",
"%. c #9AD544",
"&. c #98D943",
"*. c #96D747",
"=. c #97D749",
"-. c #9AD948",
";. c #9ADA46",
":. c #9AD545",
">. c #99D346",
",. c #99D942",
"<. c #9BDB43",
"1. c #9AD546",
"2. c #9AD644",
"3. c #99D445",
"4. c #99D543",
"5. c #98D344",
"6. c #97D144",
"7. c #98D343",
"8. c #96CF43",
"9. c #98D342",
"0. c #96D142",
"q. c #91C842",
"w. c #94CD42",
"e. c #92C842",
"r. c #9BDB42",
"t. c #94CC42",
"y. c #91C742",
"u. c #93CA43",
"i. c #98D543",
"p. c #99D741",
"a. c #99D641",
"s. c #9AD841",
"d. c #94CC44",
"f. c white",
/* pixels */
"  . X o o O O O O O O O O O O O O O O O O O O O O O O O O O O O O O O o o X .   ",
"+ @ X o o O O O O O O O O O O O O O O O O O O O O O O O O O O O O O O o o X @ + ",
"# $ % o o O O O O O O O O O O O O O O O O O O O O O O O O O O O O O O o o % $ # ",
"& * = o o O O O O O O O O O O O O O O O O O O O O O O O O O O O O O O o o = * & ",
"- ; : o o O O O O O O O O O O O O O O O O O O O O O O O O O O O O O O o o : ; - ",
"> , . o o O O O O O O O O O O O O O O O O O O O O O O O O O O O O O O o o . , > ",
"< 1 % o o O O O O O O O O O O O O O O O O O O O O O O O O O O O O O O o o % 1 < ",
"2 1 % o o O O O O O O O O O O O O O O O O O O O O O O O O O O O O O O o o % 1 2 ",
"3 4 = o o O O O O O O O O O O O O O O O O O O O O O O O O O O O O O O o o = 4 3 ",
"5 6 = o o O O O O O O O O O O O O O O 7 7 7 7 7 7 7 7 O O O O O O O O o o = 6 5 ",
"8 9 0 o o O O O O O O O O O O O O O O 7 7 7 7 7 7 7 7 O O O O O O O O o o 0 9 8 ",
"q w e o o O O O O O O O O O O O O r r 7 7 7 7 7 7 7 7 7 7 O O O O O O o o e w q ",
"t y e o o O O O O O O O O O O O O r r r O O u u 7 7 7 7 7 O O O O O O o o e y t ",
"i p X o o O O O O O O O O O O O O 7 7 a s d f g h r 7 7 7 O O O O O O o o X p i ",
"  j X o o O O O O O O O O O O O O 7 k l z x c v b n 7 7 7 O O O O O O o o X j   ",
"m M N o o O O O O O O O O O O O O 7 k l B V C Z A n 7 o o O O O O O O o o N M m ",
"S D = o o O O O O O O O O O O O O 7 7 N F G H H J K 7 o o O O O O O O o o = D S ",
"- ; : o o O O O O O O O O O O 7 7 7 7 L N K P F K N 7 r r O O O O O O o o : ; - ",
"I U : o o O O O O O O O O O O 7 7 7 L Y T 7 7 7 7 7 r r r O O O O O O o o : U I ",
"> , . o o O O O O O O 7 7 7 7 7 7 r R O o o 7 7 o r r r r O O O O O O o o . , > ",
"< 1 % o o O O O O O O 7 7 7 7 o E g W W Q O 7 7 7 r r r r O O O O O O o o % 1 < ",
"2 ! % o o O O O O O O 7 7 T T ~ ^ / ( ) _ ~ 7 7 7 O O O O O O O O O O o o % ! 2 ",
"5 6 = o o O O O O O O 7 7 T 7 ` ' ] [ { } | a 7 u O O O O O O O O O O o o = 6 5 ",
" .! % o o O O O O O O o o 7 7 J ..X.o.O.+.@.a o o O O O O O O O O O O o o % #. .",
"$.%.X o o O O O O O O o o 7 k &.*.=.-.;.l K 7 o o O O O O O O O O O O o o e :.>.",
"t y e o o O O O O O O r r 7 k ,.F F n 7 k k 7 <.<.O O O O O O O O O O o o e y 1.",
"t y e o o O O O O O O r r 7 7 7 k N X 7 7 7 7 <.<.O O O O O O O O O O o o X 2.:.",
"3.2.X o o O O O O O O r r r r o o u u u u <.<.<.<.O O O O O O O O O O o o X 4.5.",
"6.7.% o o O O O O O O r r r r o o u u u u <.<.<.<.O O O O O O O O O O o o % ! 4 ",
"8.! % o o O O O O O O O O O O O O O O O O O O O O O O O O O O O O O O o o % $ 8.",
"4 9.% o o O O O O O O O O O O O O O O O O O O O O O O O O O O O O O O o o % 7.4 ",
"; 0.= o o O O O O O O O O O O O O O O O O O O O O O O O O O O O O O O o o = 6 # ",
"q.w.: o o O O O O O O O O O O O O O O O O O O O O O O O O O O O O O O o o : w.e.",
"I w.: r.7 X 7 7 7 O O O O O O O O O O O O O O O O O O O O O O O O O O o o : t.y.",
"8.1 % k % = N 7 7 O O O O O O O O O O O O O O O O O O O O O O O O O O r.7 : # u.",
"5.i.N L p.a.s.7 7 O O O O O O O O O O O O O O O O O O O O O O O O O O 7 7 : 4 d."
};
