/* XPM */
static char * bau_xpm[] = {
"40 36 9 1",
" 	c #A0DB2E",
".	c #1E1208",
"+	c #F9A31B",
"@	c #3D2715",
"#	c #56381E",
"$	c #6C4C31",
"%	c #FFD541",
"&	c #DB8D18",
"*	c #8F5C10",
"                                        ",
"                                        ",
"    .....                     .....     ",
"   .++++.......................++++.    ",
"  .++++@####$$$$$$$$#$$#$$$####@++++.   ",
"  .%%%@##$$$$$#$##$$$$$$$$$$$$$#@%%%.   ",
" .%%%%@####$$$$$$$$$$$$$##$#$$##@%%%%.  ",
" .%%%@$$$$$$$$$$$$$$$$$$$$$$$$$$$@%%%.  ",
" .%%+@###$$$$$$$$$$###$$$$$$$$$##@+%%.  ",
" .+++@#$$$$$$$$$$$$$$$$$$$$$$$$$$@+++.  ",
" .+++@##$$$$##$$$$$$$$$$$$##$$$##@+++.  ",
" .+++@###$$$$$$$##$$$##$#$$$$$$$#@+++.  ",
" .+++@#$$$$$$$$$$$$$$$$$$$$$$$$$#@+++.  ",
" .+++@@@###$$$$$$$$$$$$$$$##$$$$#@+++.  ",
" .+++@##$$$$###$$$$$$$$$$$$$$$###@+++.  ",
" .++&@@##$$$$$$$#######$$##$###@@@&++.  ",
" .++&@###########%%%%%##########@@&++.  ",
" .&&&&@@########%%+++%%########@@&&&&.  ",
" .&&&&&&&&&&&&&&%+...+%&&&&&&&&&&&&&&.  ",
"  .**@@@@@@@@@@@%&&.&&%@@@@@@@@@@@**.   ",
" .***@@########@%%&&&%%@########@@***.  ",
" .%%%@##$$$$$$$#@%%%%%@#$$###$$##@%%%.  ",
" .%%+@#$$$$$$####@@@@@#$$$$$$$$$#@+%%.  ",
" .+++@####$$$$$$$#####$$###$$$$##@+++.  ",
" .+++@###$$$$##$$$$$$$$$$$$$#####@+++.  ",
" .+++@@@########################@@+++.  ",
" .&&+@@@@@###@@##@@@@@@@##@@@@@@@@+&&.  ",
" .&&&&@@@@@@@@@@@@@@@@@@@@@@@@@@@&&&&.  ",
"  .&&&&.........................&&&&.   ",
"   .....                       .....    ",
"                                        ",
"                                        ",
"                                        ",
"                                        ",
"                                        ",
"                                        "};
