/* XPM */
static char * man_xpm[] = {
"40 36 208 2",
"  	c None",
". 	c #A0DB2E",
"+ 	c #79462D",
"@ 	c #5B311D",
"# 	c #3B2312",
"$ 	c #422614",
"% 	c #4D2B19",
"& 	c #532D1A",
"* 	c #582F1C",
"= 	c #4B2A16",
"- 	c #623621",
"; 	c #56311D",
"> 	c #663923",
", 	c #5E3621",
"' 	c #472919",
") 	c #6B3C25",
"! 	c #744229",
"~ 	c #824D32",
"{ 	c #7D492E",
"] 	c #8D5539",
"^ 	c #9D6244",
"/ 	c #92593D",
"( 	c #865234",
"_ 	c #965D40",
": 	c #B87755",
"< 	c #A26445",
"[ 	c #A36748",
"} 	c #C27F5A",
"| 	c #895236",
"1 	c #A6694B",
"2 	c #34200F",
"3 	c #915738",
"4 	c #362110",
"5 	c #311F0E",
"6 	c #703F27",
"7 	c #2D1C0C",
"8 	c #643918",
"9 	c #734327",
"0 	c #5A3115",
"a 	c #C48465",
"b 	c #924F27",
"c 	c #C98259",
"d 	c #9F8266",
"e 	c #684B38",
"f 	c #48250F",
"g 	c #723511",
"h 	c #A45D33",
"i 	c #E6A782",
"j 	c #69412A",
"k 	c #FBC6A4",
"l 	c #F4BDA1",
"m 	c #D7956D",
"n 	c #714E38",
"o 	c #DEAC92",
"p 	c #EBB594",
"q 	c #332A32",
"r 	c #30304D",
"s 	c #1B2B3D",
"t 	c #956745",
"u 	c #DE9A75",
"v 	c #F3B18F",
"w 	c #F7BC98",
"x 	c #946956",
"y 	c #AAB1D6",
"z 	c #4381BF",
"A 	c #466E9C",
"B 	c #AE6D2F",
"C 	c #B07F66",
"D 	c #FAC29D",
"E 	c #F0CEC5",
"F 	c #93B6D6",
"G 	c #6290B7",
"H 	c #EFCCB9",
"I 	c #3C240E",
"J 	c #FAD9C4",
"K 	c #3C1809",
"L 	c #531512",
"M 	c #61170A",
"N 	c #662207",
"O 	c #80340F",
"P 	c #AB5C4D",
"Q 	c #C17A65",
"R 	c #D0B99E",
"S 	c #E9D7CB",
"T 	c #DC9F81",
"U 	c #7D5847",
"V 	c #430606",
"W 	c #640908",
"X 	c #CC8547",
"Y 	c #D8A072",
"Z 	c #893B4C",
"` 	c #6F5572",
" .	c #977B8E",
"..	c #693A36",
"+.	c #4D1815",
"@.	c #5A0707",
"#.	c #93724F",
"$.	c #976B39",
"%.	c #9B6929",
"&.	c #C39963",
"*.	c #920E13",
"=.	c #A71812",
"-.	c #B31D16",
";.	c #B42118",
">.	c #740A0A",
",.	c #430B0F",
"'.	c #503F46",
").	c #B37446",
"!.	c #BD7F36",
"~.	c #CA822A",
"{.	c #C37831",
"].	c #BD6F16",
"^.	c #CAB4AD",
"/.	c #6D4F61",
"(.	c #561029",
"_.	c #971B13",
":.	c #A72111",
"<.	c #880F10",
"[.	c #550706",
"}.	c #391416",
"|.	c #4F4E79",
"1.	c #C47A48",
"2.	c #AF938C",
"3.	c #8B776B",
"4.	c #192E8E",
"5.	c #776C94",
"6.	c #BB8256",
"7.	c #291943",
"8.	c #5C0908",
"9.	c #4B0606",
"0.	c #393665",
"a.	c #492F31",
"b.	c #A27455",
"c.	c #975C25",
"d.	c #765736",
"e.	c #876E67",
"f.	c #1C42BA",
"g.	c #3260F4",
"h.	c #3C0606",
"i.	c #830B0B",
"j.	c #552918",
"k.	c #84665D",
"l.	c #58453A",
"m.	c #714411",
"n.	c #2E2545",
"o.	c #715A52",
"p.	c #974C00",
"q.	c #4B2628",
"r.	c #0C1D7A",
"s.	c #1B3AAD",
"t.	c #532327",
"u.	c #928594",
"v.	c #4D3937",
"w.	c #694944",
"x.	c #120D31",
"y.	c #1A174A",
"z.	c #493228",
"A.	c #38407D",
"B.	c #5D63A5",
"C.	c #814714",
"D.	c #5F4225",
"E.	c #20191E",
"F.	c #7B0A0A",
"G.	c #9B100E",
"H.	c #540808",
"I.	c #503A31",
"J.	c #938483",
"K.	c #A39795",
"L.	c #2A347A",
"M.	c #805E51",
"N.	c #895820",
"O.	c #E6E3E2",
"P.	c #FEFEFF",
"Q.	c #593A27",
"R.	c #301C22",
"S.	c #302D43",
"T.	c #6B0B0A",
"U.	c #C0B8C1",
"V.	c #F8F7F8",
"W.	c #F0EEEF",
"X.	c #B6AEAF",
"Y.	c #484569",
"Z.	c #9F703F",
"`.	c #4F4451",
" +	c #8B0B0C",
".+	c #E0DEE3",
"++	c #A6866F",
"@+	c #284ED0",
"#+	c #5772DF",
"$+	c #21143B",
"%+	c #06064E",
"&+	c #7A4B26",
"*+	c #CEC8CB",
"=+	c #0A0949",
"-+	c #3F55B6",
";+	c #9A8B99",
">+	c #120D49",
",+	c #392819",
"'+	c #815938",
")+	c #C7231A",
"!+	c #534B56",
"~+	c #E39874",
"{+	c #8B534B",
"]+	c #433B42",
"^+	c #211309",
"/+	c #A75F1D",
"(+	c #72696F",
"_+	c #101011",
". . . . . . . . . . . . . . . . . . . . . . . . . . . . . . . . . . . . . . . . ",
". . . . . . . . . . . . + @ . . # # $ % & * @ = # . . . . . . . . . . . . . . . ",
". . . . . . . . . . . . - @ = ; @ @ - * @ > > > @ & ; % . . . . . . . . . . . . ",
". . . . . . . . . . , ' $ * > ) - ) ) > ! + ! ~ + ) { ) & # . . . . . . . . . . ",
". . . . . . . . # = - > - + ] { + ^ / ) ( ^ { _ _ ~ ~ / ~ & $ . . . . . . . . . ",
". . . . . . . . . % ! ) _ : < ~ ~ [ _ ) ] : ] [ } ] { | 1 ( * # . . . . . . . . ",
". . . . . . . 2 ; ~ + > 1 [ ~ + ! ] { ) ( 1 _ / : / ) ! / < ) & $ 2 . . . . . . ",
". . . . . . . $ ) ! > > ] | { > - ! ) > { | 3 ~ ^ | @ @ + 3 ! $ 4 5 . . . . . . ",
". . . . . . 2   # @ @ - { { ) & & - @ @ 6 ~ + + | ! $ = ) + - # . . . . . . . . ",
". . . . . . . 7 # & & 8 9 > * $ # & & $ > + > { ~ ; % 9 > ! = . . . . . . . . . ",
". . . . . . . # 5 $ & @ - @ & 0 0 = % # & , , { - > : a ' & . . . . . . . . . . ",
". . . . . . # $ 5 # % & @ * b c c b = d e ) | # f g h i 9 2 . . . . . . . . . . ",
". . . . . . . 2 2 5 $ @ & = j k l m n o p < 8 q r s 3 i h . . . . . . . . . . . ",
". . . . . . . . # 5 5 & - = 7 t u v p w w m x y z A a p B . . . . . . . . . . . ",
". . . . . . . . . 5 5 4 = & $ 5 4 C k D D v i E F G o H u . . . . . . . . . . . ",
". . . . . . . . . . . 5 5 # = I 7 _ i w D D D D k J J l a . . . . . . . . . . . ",
". . . . . . . . . . . . K L M M N N O P Q R H S J p T U . . . . . . . . . . . . ",
". . . . . . . . . . . . V W g X X X X Y m P Z `  ...+.. . . . . . . . . . . . . ",
". . . . . . . . . . . . @.W 8 #.$.%.%.B &.} *.=.-.;.=.>.. . . . . . . . . . . . ",
". . . . . . . . . . . V W ,.'.).!.~.{.].^.d /.(._.:.<.. . . . . . . . . . . . . ",
". . . . . . . . . . . V [.}.|.!.%.{.c 1.2.3.3.4.5.6.7.. . . . . . . . . . . . . ",
". . . . . . . . . . . 8.9.L 0.a.K ).b.x c.d.e.f.g.^.r . . . . . . . . . . . . . ",
". . . . . . . . . . h.i.@.W j.k.l.m.n.4.o.p.q.r.s.b.7.. . . . . . . . . . . . . ",
". . . . . . . . . . h.i.>.[.t.u.u.d.' v.5.` w.x.x.a.y.. . . . . . . . . . . . . ",
". . . . . . . . . . h.i.i.V +.l.l.q & z.A.B.e.C.D.E.. . . . . . . . . . . . . . ",
". . . . . . . . . . [.F.G.H.8.I.J.K.K.e 8 a.L.M.N.' . . . . . . . . . . . . . . ",
". . . . . . . . . . >.F.;.W j.3.O.P.P.O.Q.R.D.n Q.S.. . . . . . . . . . . . . . ",
". . . . . . . . . h.T.i.-.>.v.U.P.V.W.X.Y.s.|.Z.+ `.. . . . . . . . . . . . . . ",
". . . . . . . . . @.>. +>.M o..+O.++M.e @+#+k.$+%+&+Y.. . . . . . . . . . . . . ",
". . . . . . . . H. +i. +H.z.*+S U $+=+, -+;+Q.%+%+>+e w.. . . . . . . . . . . . ",
". . . . . . . . @.i.>.=.>.I.*+d ,+=+%+n.&+. . %+y.y.l.'+. . . . . . . . . . . . ",
". . . . . . . . 9.W  +)+T.I.R c.n q r !+l.. . . z.( h 1.C.. . . . . . . . . . . ",
". . . . . . . . . 9.i.)+L ,+8 : ~+{+]+. . . . . ^+m./+$.w.q . . . . . . . . . . ",
". . . . . . . . . . W _.. (+t n b.. . . . . . . . S.`.]+`.]+. . . . . . . . . . ",
". . . . . . . . . . . . . 0.;+2.^.(+_+. . . . . . . . . . . . . . . . . . . . . ",
". . . . . . . . . . . . . . . . . . . . . . . . . . . . . . . . . . . . . . . . "};
