/* XPM */
static char * saida_xpm[] = {
"40 36 206 2",
"  	c #724E24",
". 	c #A77735",
"+ 	c #AB7934",
"@ 	c #B37C31",
"# 	c #543312",
"$ 	c #755025",
"% 	c #795226",
"& 	c #7D552B",
"* 	c #83582A",
"= 	c #835A2B",
"- 	c #3C240D",
"; 	c #5C3D1B",
"> 	c #543818",
", 	c #4E3313",
"' 	c #654116",
") 	c #7C511C",
"! 	c #744719",
"~ 	c #744B1B",
"{ 	c #8D5B23",
"] 	c #855923",
"^ 	c #835522",
"/ 	c #6D491B",
"( 	c #795B39",
"_ 	c #7A5E41",
": 	c #7D6245",
"< 	c #786654",
"[ 	c #6F6053",
"} 	c #705F50",
"| 	c #A0DB2E",
"1 	c #7E6956",
"2 	c #5A3611",
"3 	c #2D1D0D",
"4 	c #7A4D1C",
"5 	c #43290E",
"6 	c #432B10",
"7 	c #996426",
"8 	c #9A6528",
"9 	c #83541D",
"0 	c #8B5722",
"a 	c #6B4519",
"b 	c #B87F32",
"c 	c #A5722B",
"d 	c #A36D2B",
"e 	c #9D6A2A",
"f 	c #946225",
"g 	c #896538",
"h 	c #A87C48",
"i 	c #8B7155",
"j 	c #665C56",
"k 	c #5B5759",
"l 	c #636165",
"m 	c #6C696C",
"n 	c #757277",
"o 	c #78757A",
"p 	c #9D8C7B",
"q 	c #6C4315",
"r 	c #48331A",
"s 	c #875E32",
"t 	c #6C512E",
"u 	c #9E7239",
"v 	c #846C53",
"w 	c #484648",
"x 	c #2C2B2C",
"y 	c #302F30",
"z 	c #3C393C",
"A 	c #4E4D50",
"B 	c #716D73",
"C 	c #A9947B",
"D 	c #946229",
"E 	c #342414",
"F 	c #47392A",
"G 	c #79562D",
"H 	c #5C4C3D",
"I 	c #685645",
"J 	c #383636",
"K 	c #242224",
"L 	c #1A191A",
"M 	c #564E4B",
"N 	c #776A61",
"O 	c #86776B",
"P 	c #8A796C",
"Q 	c #8D827B",
"R 	c #B29A81",
"S 	c #BB8534",
"T 	c #120F0E",
"U 	c #181718",
"V 	c #1F1E20",
"W 	c #141213",
"X 	c #23170B",
"Y 	c #664A27",
"Z 	c #6A5236",
"` 	c #997E64",
" .	c #A28564",
"..	c #AA8E71",
"+.	c #AB947C",
"@.	c #95867B",
"#.	c #B9A185",
"$.	c #A47327",
"%.	c #CB933C",
"&.	c #AC7631",
"*.	c #0E0A0A",
"=.	c #27190B",
"-.	c #1C130C",
";.	c #5C3A14",
">.	c #B68A47",
",.	c #AC8244",
"'.	c #AC834A",
").	c #937553",
"!.	c #A68A69",
"~.	c #B49673",
"{.	c #B3977A",
"].	c #AE9780",
"^.	c #D19F47",
"/.	c #64411A",
"(.	c #B48234",
"_.	c #C38A3A",
":.	c #C28935",
"<.	c #AC8D64",
"[.	c #B59A7E",
"}.	c #958C85",
"|.	c #D4A44A",
"1.	c #AB752E",
"2.	c #623C14",
"3.	c #AE792E",
"4.	c #8E6125",
"5.	c #BE8837",
"6.	c #B28554",
"7.	c #9C7D5A",
"8.	c #AE916B",
"9.	c #664621",
"0.	c #915E25",
"a.	c #CE9A44",
"b.	c #B38539",
"c.	c #C59343",
"d.	c #AA7E3D",
"e.	c #AB8459",
"f.	c #B4966F",
"g.	c #9B9086",
"h.	c #96682B",
"i.	c #B48A56",
"j.	c #B58D5A",
"k.	c #9F815C",
"l.	c #AD9172",
"m.	c #9B9289",
"n.	c #684722",
"o.	c #B27C2F",
"p.	c #B6915C",
"q.	c #653D16",
"r.	c #B7996F",
"s.	c #A06F25",
"t.	c #B89A6F",
"u.	c #B09780",
"v.	c #9A826A",
"w.	c #998674",
"x.	c #958373",
"y.	c #9A6B25",
"z.	c #A57B3C",
"A.	c #89735D",
"B.	c #8A7D74",
"C.	c #925F28",
"D.	c #AF7F53",
"E.	c #866E56",
"F.	c #887562",
"G.	c #925D1F",
"H.	c #A28C74",
"I.	c #987245",
"J.	c #94601F",
"K.	c #9D6E31",
"L.	c #916C42",
"M.	c #987753",
"N.	c #9B846C",
"O.	c #8E642B",
"P.	c #916C3D",
"Q.	c #896A47",
"R.	c #947F6C",
"S.	c #9E8A74",
"T.	c #8B591E",
"U.	c #88571B",
"V.	c #969295",
"W.	c #A18C7A",
"X.	c #C2882F",
"Y.	c #624C36",
"Z.	c #594839",
"`.	c #49423C",
" +	c #4A3C2F",
".+	c #3E3D40",
"++	c #5D4428",
"@+	c #201F21",
"#+	c #423F40",
"$+	c #A59689",
"%+	c #42250B",
"&+	c #4B2B0C",
"*+	c #4E300F",
"=+	c #66390F",
"-+	c #5B330E",
";+	c #B5AEA9",
">+	c #804F1A",
",+	c #4B2F11",
"'+	c #56300E",
")+	c #522E0E",
"!+	c #B8E084",
"~+	c #35200B",
"{+	c #814F20",
"]+	c #A47639",
"^+	c #D29A3D",
"/+	c #D0953B",
"  . + + + + . . . . + + + + @ + + + + + . . . . . . . . . . . + + + + + + + + . ",
"#     $ $ $     % % & & * = = = = * * & % % % % $                 $ % %   % & $ ",
"- ; > , # , ' ) ) ! ! ~ ' { ] ] ^ ^ % / ) { { { = & ( _ _ : < [ [ } [ | | 1 2 ' ",
"3 4 ' 5 , 6 ) 7 8 4 9 0 a b c c d e f * g h i 1 < < j k l m n m l l o | | p q f ",
"3 ^ ) , r r 7 8 e % ] s t h u v 1 1 < j w w w x y z z w A k B l l l o | | C 4 e ",
"- D { 6 E F G H I H H z J J z k w x x K L L L L K x J w M k N O P P Q | | R f S ",
"6 @ + - T x U U x x V L L L L K L W W T X 3 > Y t Z Z i `  ...+.+.C @.| | #.$.%.",
"6 &.c 6 *.U W W W W W =.-.3 3 > / / a ;.] @ &.>.,.'.). .!.~.{.].+.C @.| | #.$.^.",
"6 &.c ;.- X 3 /./ a / D / S &.(._.:.S e . %.+ >.'.h ).!.<.~.[.R R C }.| | #.$.|.",
"6 &.1.' 2./.9 e @ 3.1.1.4.^._.S 5.5.b e + %.+ >.6.6.7.!.8.~.[.R R [.}.| | #.$.|.",
"5 c 1.' 2.9.0.e &.1.3.1.D a._.S 5.5.b d b.c.d.>.6.e.7...f.~.{.R ].R g.| | R $.|.",
"- 7 c ' 2.9.{ e &.1.3.3.h.^._.S 5.5.@ d b.c.d.i.j.<.k.l.~.~.{.R ].R m.| | ].1.|.",
"5 f c ' 2.n.8 e &.1.3.o.e |._.S @ S @ d + c.d.i.p.<.e.l.~.[.R R R R m.| | R 3.|.",
"5 e c 2.q.n.8 e &.1.1.3.e a._.S o.S b d (.c.d.p.j.j.7.f.~.~.[.R R R m.| | R $.|.",
"6 &.c ' 2.n.8 e &.1.@ o.h.a._.S o.S b c b.c.d.p.p.j.7.r.f.~.{.+.[.].m.| | R s.a.",
"6 1.c ' ;.n.8 e &.1.@ @ h.^._.S o.S @ c b.c.d.i.i.j.7.r.t.~.l.C C C m.| | u.s.%.",
"5 8 c 2.2.9.D e &.1.@ b h.a._.S o.S o.c b._.d.j.6.j.7.r.!.v.w.x.@.w.g.| | ].y.%.",
"5 e c 2.2.n.D 7 &.1.1.3.4._._.S @ S @ c b.>.z.j.6.j.7.f.A.N O O B.B.}.| | ].7 %.",
"- d c 2.2.n.C.D 1.d 1.1.{ _._.S @ @ 3.$.b.>.z.6.D.j.7.f.A.E.F.v.x.w.m.| | ].G.%.",
"- 8 c 2.' n.0.D d e d c { _.S b @ @ 1.e &.b.z.,.h i.7.<.!.v.!...H.H.m.| | u.G.a.",
"- 8 c 2.q.9.{ f e e d 8 f %.@ 1.1.1.d 8 e + z.z.I.h ).7. .8...l.H.C m.| | ].J._.",
"- 7 e ;.2.9.{ { 7 8 d 8 ] 5.3.f 8 d d 7 f K.K.I.L.h M.).7. .N.H.H.H.m.| | u.G.S ",
"- e 8 2 ;./.{ { { { 0.f ^ b 1.9 0 e f { 0.D O.P.L.I.Q.).i ` R.H.S.S.m.| | [.T.(.",
"6 &.y.2 2.q.0 { { 9 { 0.) 3.d 9 U.f 9 ) ] ] s g g g Q.).i v.v.S.S.S.g.| | u.G.S ",
"6 &.e ;.2.; 4 U.{ 9 0 9 ~ d 8 9 0 0.~ ! ] * = s P.g ( i i v.v.N.S.H.m.| | +.G.S ",
"6 &.c ' 2.; ~ ) U.9 0 ~ ! e { ) 0.9 / / ] ^ = s g g : A.F.R.R.B.Q }.V.| | W.T.S ",
"6 &.1.' q /.) ! 9 ~ 0 ~ / 7 U.! 9 ) a / & G I I I } j k l m n n n n V.| | S.9 X.",
"6 &.1.' ' /.) ~ ) / ~ n.n.s G Y.Z.Z.Z.`. +`.A .+J w w A k l n m B n }.| | p 9 X.",
"6 1.c ;.> ++++F  +F F x x x x y K V @+L L K x x y z #+M k j N O B.Q m.| | p 9 S ",
"5 8 c 5 T z L T W U U W W W W W W W W T 3 E > ++++Y.I v v F.P v.w.w.$+| | p 9 S ",
"- { { - *.K T *.T T T -.-.3 X - %+%+&+- ! 4 % & ( ( I i E.F.P R.x.w.m.| | p U.X.",
"- 0 9 *+E X =.%+%+%+- &+# ! =+-+-+-+=+&+~ ^ % ( ( : I v 1 A.P x.x.@.;+| | S.>+S ",
"- 0 ^ 2 2 ,+-+-+'+-+)+&+# 4 =+-+-+-+=+&+' ~ t ( _ : F.p g.$+;+| | | | | | x.! d ",
"- 0 4 # -+,+'+)+)+)+&+%+5 q -+# # # 2 # > ; | | | | | | | | | | | | | | !+P q C.",
"~+{+! # # 5 )+# ;.# # ~ ~ ] ] O.O.O.D h.K.K.K.K.]+]+u ]+z.h '.'.'.'.'.'.'.Y q.{ ",
"~+# 5 $ e ] O.S S (.S %.%.%.%.%.%.%.%.%.%.%.%.%.%.%._.%.%.%.^+^+^+^+^+%./+~ 5 2 "};
