/* XPM */
static char *_87c931eaebe4a2eb3c874b688115f5dxnZ7GgESC2nPzWhq[] = {
/* columns rows colors chars-per-pixel */
"81 81 6 1 ",
"  c #2F2E2F",
". c #85578E",
"X c #BE9BB0",
"o c #564064",
"O c #3E2F5A",
"+ c white",
/* pixels */
"                                                                                 ",
"                                                                                 ",
"  ..XXXXXXXXXXXXXXXXXXXX..  ..XXXXXXXXXXXXXXXXXXXXXXXXXXXX..  ..XXXXXXXXXXXXXXXXX",
"  ..XXXXXXXXXXXXXXXXXXXX..  ..XXXXXXXXXXXXXXXXXXXXXXXXXXXX..  ..XXXXXXXXXXXXXXXXX",
"  XX....................XX  XX..........oo......oo........XX  XX.................",
"  XX....................XX  XX..........oo......oo........XX  XX.................",
"  ....oooooooo..oooooo....  ....oooo..oooooo..oooooooooooo..  ..oooo..oooooooo..o",
"  ....oooooooo..oooooo....  ....oooo..oooooo..oooooooooooo..  ..oooo..oooooooo..o",
"  ..ooooooooooooooooOOOO..  ..OOOOooooooooooooooooooooOOoooo  ooooooooooooOOooooo",
"  ..ooooooooooooooooOOOO..  ..OOOOooooooooooooooooooooOOoooo  ooooooooooooOOooooo",
"  oo..ooooOOOOOOOOOOOOOOOO  OOOOOOOOOOOOooooOOOOOOOOOOOOOOOO  OOOOOOOOOOOOOOOOOOO",
"  oo..ooooOOOOOOOOOOOOOOOO  OOOOOOOOOOOOooooOOOOOOOOOOOOOOOO  OOOOOOOOOOOOOOOOOOO",
"  OOooooOOOOOOOOOOOOOOOO      OOOOOOOOOOOOOOOOOOOOOOOOOOOO      OOOOOOOOOOOOOOOOO",
"  OOooooOOOOOOOOOOOOOOOO      OOOOOOOOOOOOOOOOOOOOOOOOOOOO      OOOOOOOOOOOOOOOOO",
"                                                                                 ",
"                                                                                 ",
"  oo......................................      ......................      .....",
"  oo......................................      ......................      .....",
"  ............................oooo..........  ............oooo..........  .......",
"  ............................oooo..........  ............oooo..........  .......",
"  ....oooooo..oooo..oooooo..oooooooo..oo....  ....oo..oooooooooo..oo....  ....ooo",
"  ....oooooo..oooo..oooooo..oooooooo..oo....  ....oo..oooooooooo..oo....  ....ooo",
"  ..oo..ooooooooooooooOOooooooOOOOOOooooOO..  ..OOooooooooOOOOooooooOO..  ..OOooo",
"  ..oo..ooooooooooooooOOooooooOOOOOOooooOO..  ..OOooooooooOOOOooooooOO..  ..OOooo",
"  ..ooooooooooOOooooOOOOOOooooooooooooOOOOOO  OOOOOOooooOOOOooooooOOOOOO  OOOOOOo",
"  ..ooooooooooOOooooOOOOOOooooooooooooOOOOOO  OOOOOOooooOOOOooooooOOOOOO  OOOOOOo",
"  oo..ooooooOOOOOOOOOOOOOOOOOOOOooooOOOOOOOO  OOOOOOOOOOOOOOOOOOOOOOOOOO  OOOOOOO",
"  oo..ooooooOOOOOOOOOOOOOOOOOOOOooooOOOOOOOO  OOOOOOOOOOOOOOOOOOOOOOOOOO  OOOOOOO",
"  OOooooOOOOOOOOOOOOOOOOOOOOOOOOOOOOOOOOOO      OOOOOOOOOOOOOOOOOOOOOO      OOOOO",
"  OOooooOOOOOOOOOOOOOOOOOOOOOOOOOOOOOOOOOO      OOOOOOOOOOOOOOOOOOOOOO      OOOOO",
"                                                                                 ",
"                                                                                 ",
"  oo................      ........................      .........................",
"  oo................      ........................      .........................",
"  ............oo......  ............oo..............  ......oo................oo.",
"  ............oo......  ............oo..............  ......oo................oo.",
"  ......oo..oooooo....  ....oooo..oooooooo..oooo....  ....oooooooo..oooooo..ooooo",
"  ......oo..oooooo....  ....oooo..oooooooo..oooo....  ....oooooooo..oooooo..ooooo",
"  ....ooooOOoooooooo..  ..ooooooooooOOooooOOoooooo..  ..ooooOOooooooooooooOOooooo",
"  ....ooooOOoooooooo..  ..ooooooooooOOooooOOoooooo..  ..ooooOOooooooooooooOOooooo",
"  ..oo..ooooOOooooooOO  OOooooooooOOOOooooooOOooooOO  OOooooooOOooooOOOOooooOOooo",
"  ..oo..ooooOOooooooOO  OOooooooooOOOOooooooOOooooOO  OOooooooOOooooOOOOooooOOooo",
"  ..ooooooooOOOOooOOOO  OOOOooOOOOOOooooOOooooooOOOO  OOOOooooooooOOOOooooooOOOOo",
"  ..ooooooooOOOOooOOOO  OOOOooOOOOOOooooOOooooooOOOO  OOOOooooooooOOOOooooooOOOOo",
"  oo..ooooOOOOOOOOOOOO  OOOOOOOOOOOOOOOOOOOOooOOOOOO  OOOOOOooOOOOOOOOOOooOOOOOOO",
"  oo..ooooOOOOOOOOOOOO  OOOOOOOOOOOOOOOOOOOOooOOOOOO  OOOOOOooOOOOOOOOOOooOOOOOOO",
"  OOooOOOOOOOOOOOOOO      OOOOOOOOOOOOOOOOOOOOOOOO      OOOOOOOOOOOOOOOOOOOOOOOOO",
"  OOooOOOOOOOOOOOOOO      OOOOOOOOOOOOOOOOOOOOOOOO      OOOOOOOOOOOOOOOOOOOOOOOOO",
"                                                                                 ",
"                                                                                 ",
"  oo....................................      ............................      .",
"  oo....................................      ............................      .",
"  ......oo................oo......oo......  ................oo..............  ...",
"  ......oo................oo......oo......  ................oo..............  ...",
"  ........oo......oooo..oooooo..oooooo....  ....oooo..oooooooooooo..oooo....  ...",
"  ........oo......oooo..oooooo..oooooo....  ....oooo..oooooooooooo..oooo....  ...",
"  ....oooo..OO..OOooooooooooooOOooooooOO..  ..OOooooooooooooOOooOOooooooOO..  ..O",
"  ....oooo..OO..OOooooooooooooOOooooooOO..  ..OOooooooooooooOOooOOooooooOO..  ..O",
"  ..ooooooooOOOOOOOOooOOOOooooooooooOOOOOO  OOOOOOooooooooOOOOooooooooOOOOOO  OOO",
"  ..ooooooooOOOOOOOOooOOOOooooooooooOOOOOO  OOOOOOooooooooOOOOooooooooOOOOOO  OOO",
"  oo..ooooOOOOOOOOOOOOOOOOOOOOOOooOOOOOOOO  OOOOOOOOooOOOOOOOOOOOOooOOOOOOOO  OOO",
"  oo..ooooOOOOOOOOOOOOOOOOOOOOOOooOOOOOOOO  OOOOOOOOooOOOOOOOOOOOOooOOOOOOOO  OOO",
"  OOooOOOOOOOOOOOOOOOOOOOOOOOOOOOOOOOOOO      OOOOOOOOOOOOOOOOOOOOOOOOOOOO      O",
"  OOooOOOOOOOOOOOOOOOOOOOOOOOOOOOOOOOOOO      OOOOOOOOOOOOOOOOOOOOOOOOOOOO      O",
"                                                                                 ",
"                                                                                 ",
"  oo....................      ............................      .................",
"  oo....................      ............................      .................",
"  ........oo..............  ............oo......oo..........  ............oo.....",
"  ........oo..............  ............oo......oo..........  ............oo.....",
"  ....oooooooo..oooooo....  ....oooo..oooooo..oooooooooooo..  ..oooo..oooooooo..o",
"  ....oooooooo..oooooo....  ....oooo..oooooo..oooooooooooo..  ..oooo..oooooooo..o",
"  ..ooooooooooooooooOOOO..  ..OOOOooooooooooooooooooooOOoooo  ooooooooooooOOooooo",
"  ..ooooooooooooooooOOOO..  ..OOOOooooooooooooooooooooOOoooo  ooooooooooooOOooooo",
"  oo..ooooOOOOOOOOOOOOOOOO  OOOOOOOOOOOOooooOOOOOOOOOOOOOOOO  OOOOOOOOOOOOOOOOOOO",
"  oo..ooooOOOOOOOOOOOOOOOO  OOOOOOOOOOOOooooOOOOOOOOOOOOOOOO  OOOOOOOOOOOOOOOOOOO",
"  OOooooOOOOOOOOOOOOOOOO      OOOOOOOOOOOOOOOOOOOOOOOOOOOO      OOOOOOOOOOOOOOOOO",
"  OOooooOOOOOOOOOOOOOOOO      OOOOOOOOOOOOOOOOOOOOOOOOOOOO      OOOOOOOOOOOOOOOOO",
"                                                                                 ",
"                                                                                 ",
"  oo......................................      ......................      ....."
};
