/* XPM */
static char *xpm__64x64__Dungeon_Bricks_Shadow__3_1722863956[] = {
/* columns rows colors chars-per-pixel */
"80 80 5 1 ",
"  c #2F2E2F",
". c #564064",
"X c #3E2F5A",
"o c #39314B",
"O c white",
/* pixels */
"  ............................      ........................      ..............",
"................XX..............  ............XX......XX......  ................",
"................XX..............  ............XX......XX......  ................",
"....XXXX..XXXXXXXXXX....XXXX....  ....XXXX..XXXXXX..XXXXXX....  ....XXXX..XXXXXX",
"....XXXX..XXXXXXXXXX....XXXX....  ....XXXX..XXXXXX..XXXXXX....  ....XXXX..XXXXXX",
"..ooXXXXXXXXXXXXooXXXXXXXXXXoo..  ..ooXXXXXXXXXXXXXXXXXXXXoo..  ..ooXXXXXXXXXXXX",
"..ooXXXXXXXXXXXXooXXXXXXXXXXoo..  ..ooXXXXXXXXXXXXXXXXXXXXoo..  ..ooXXXXXXXXXXXX",
"ooooooXXXXXXXXooooXXXXXXXXoooooo  ooooooXXooooXXXXXXXXXXoooooo  ooooooXXXXXXXXoo",
"ooooooXXXXXXXXooooXXXXXXXXoooooo  ooooooXXooooXXXXXXXXXXoooooo  ooooooXXXXXXXXoo",
"ooooooooXXooooooooooooXXoooooooo  ooooooooooooooooooXXoooooooo  ooooooooXXoooooo",
"ooooooooXXooooooooooooXXoooooooo  ooooooooooooooooooXXoooooooo  ooooooooXXoooooo",
"  oooooooooooooooooooooooooooo      oooooooooooooooooooooooo      oooooooooooooo",
"  oooooooooooooooooooooooooooo      oooooooooooooooooooooooo      oooooooooooooo",
"                                                                                ",
"                                                                                ",
"..............      ........................      ............................  ",
"..............      ........................      ............................  ",
"....XX..........  ............XX..............  ............XX......XX..........",
"....XX..........  ............XX..............  ............XX......XX..........",
"..XXXXXXXXXXXX..  ..XXXX..XXXXXXXX..XXXXXX....  ....XXXX..XXXXXX..XXXXXXXXXXXX..",
"..XXXXXXXXXXXX..  ..XXXX..XXXXXXXX..XXXXXX....  ....XXXX..XXXXXX..XXXXXXXXXXXX..",
"XXXXXXXXXXooXXXX  XXXXXXXXXXXXooXXXXXXXXoooo..  ..ooooXXXXXXXXXXXXXXXXXXXXooXXXX",
"XXXXXXXXXXooXXXX  XXXXXXXXXXXXooXXXXXXXXoooo..  ..ooooXXXXXXXXXXXXXXXXXXXXooXXXX",
"oooooooooooooooo  oooooooooooooooooooooooooooo  ooooooooooooXXXXoooooooooooooooo",
"oooooooooooooooo  oooooooooooooooooooooooooooo  ooooooooooooXXXXoooooooooooooooo",
"oooooooooooooo      oooooooooooooooooooooooo      oooooooooooooooooooooooooooo  ",
"oooooooooooooo      oooooooooooooooooooooooo      oooooooooooooooooooooooooooo  ",
"                                                                                ",
"                                                                                ",
"    ......................      ..............................      ............",
"    ......................      ..............................      ............",
"  ............XXXX..........  ....................XXXX..........  ............XX",
"  ............XXXX..........  ....................XXXX..........  ............XX",
"  ....XX..XXXXXXXXXX..XX....  ....XXXX..XXXXXX..XXXXXXXX..XX....  ....XX..XXXXXX",
"  ....XX..XXXXXXXXXX..XX....  ....XXXX..XXXXXX..XXXXXXXX..XX....  ....XX..XXXXXX",
"  ..ooXXXXXXXXooooXXXXXXoo..  ..ooXXXXXXXXooXXXXXXooooooXXXXoo..  ..ooXXXXXXXXoo",
"  ..ooXXXXXXXXooooXXXXXXoo..  ..ooXXXXXXXXooXXXXXXooooooXXXXoo..  ..ooXXXXXXXXoo",
"  ooooooXXXXooooXXXXXXoooooo  ooooooXXXXooooooXXXXXXXXXXXXoooooo  ooooooXXXXoooo",
"  ooooooXXXXooooXXXXXXoooooo  ooooooXXXXooooooXXXXXXXXXXXXoooooo  ooooooXXXXoooo",
"  oooooooooooooooooooooooooo  ooooooooooooooooooooooXXXXoooooooo  oooooooooooooo",
"  oooooooooooooooooooooooooo  ooooooooooooooooooooooXXXXoooooooo  oooooooooooooo",
"    oooooooooooooooooooooo      oooooooooooooooooooooooooooooo      oooooooooooo",
"    oooooooooooooooooooooo      oooooooooooooooooooooooooooooo      oooooooooooo",
"                                                                                ",
"                                                                                ",
"......      ............................      ........................      ....",
"......      ............................      ........................      ....",
"........  ......XX................XX......  ............XX..............  ......",
"........  ......XX................XX......  ............XX..............  ......",
"XXXX....  ....XXXXXXXX..XXXXXX..XXXXXX....  ....XXXX..XXXXXXXX..XXXX....  ....XX",
"XXXX....  ....XXXXXXXX..XXXXXX..XXXXXX....  ....XXXX..XXXXXXXX..XXXX....  ....XX",
"XXXXXX..  ..XXXXXXXXXXXXXXXXXXooXXXXXXXX..  ..XXXXXXXXXXooXXXXooXXXXXX..  ..XXXX",
"XXXXXX..  ..XXXXXXXXXXXXXXXXXXooXXXXXXXX..  ..XXXXXXXXXXooXXXXooXXXXXX..  ..XXXX",
"XXXXXXoo  ooXXXXXXXXXXXXooooXXXXooXXXXXXoo  ooXXXXXXXXooooXXXXXXooXXXXoo  ooXXXX",
"XXXXXXoo  ooXXXXXXXXXXXXooooXXXXooXXXXXXoo  ooXXXXXXXXooooXXXXXXooXXXXoo  ooXXXX",
"XXXXoooo  ooooXXXXXXXXooooXXXXXXooooXXoooo  ooooXXooooooXXXXooXXXXXXoooo  ooooXX",
"XXXXoooo  ooooXXXXXXXXooooXXXXXXooooXXoooo  ooooXXooooooXXXXooXXXXXXoooo  ooooXX",
"XXoooooo  ooooooXXooooooooooXXoooooooooooo  ooooooooooooooooooooXXoooooo  oooooo",
"XXoooooo  ooooooXXooooooooooXXoooooooooooo  ooooooooooooooooooooXXoooooo  oooooo",
"oooooo      oooooooooooooooooooooooooooo      oooooooooooooooooooooooo      oooo",
"oooooo      oooooooooooooooooooooooooooo      oooooooooooooooooooooooo      oooo",
"                                                                                ",
"                                                                                ",
"  ............................      ........................      ..............",
"  ............................      ........................      ..............",
"................XX..............  ............XX......XX......  ................",
"................XX..............  ............XX......XX......  ................",
"....XXXX..XXXXXXXXXXXX..XXXX....  ....XXXX..XXXXXX..XXXXXX....  ....XXXX..XXXXXX",
"....XXXX..XXXXXXXXXXXX..XXXX....  ....XXXX..XXXXXX..XXXXXX....  ....XXXX..XXXXXX",
"..ooXXXXXXXXXXXXooXXooXXXXXXoo..  ..ooXXXXXXXXXXXXooXXXXXXoo..  ..ooXXXXXXXXXXXX",
"..ooXXXXXXXXXXXXooXXooXXXXXXoo..  ..ooXXXXXXXXXXXXooXXXXXXoo..  ..ooXXXXXXXXXXXX",
"ooooooXXXXXXXXooooXXXXXXXXoooooo  ooooooXXooooXXXXXXXXXXoooooo  ooooooXXXXXXXXoo",
"ooooooXXXXXXXXooooXXXXXXXXoooooo  ooooooXXooooXXXXXXXXXXoooooo  ooooooXXXXXXXXoo",
"ooooooooXXooooooooooooXXoooooooo  ooooooooooooooooooXXoooooooo  ooooooooXXoooooo",
"ooooooooXXooooooooooooXXoooooooo  ooooooooooooooooooXXoooooooo  ooooooooXXoooooo",
"  oooooooooooooooooooooooooooo      oooooooooooooooooooooooo      oooooooooooooo",
"  oooooooooooooooooooooooooooo      oooooooooooooooooooooooo      oooooooooooooo",
"                                                                                ",
"                                                                                ",
"..............      ........................      ............................  "
};
