/* XPM */
static char * man_xpm[] = {
"80 80 70 1",
" 	c #2F2E2F",
".	c #564064",
"+	c #301B17",
"@	c #502D26",
"#	c #3E2F5A",
"$	c #EC8570",
"%	c #9A5749",
"&	c #C56F5E",
"*	c #7A453A",
"=	c #564063",
"-	c #39304A",
";	c #383049",
">	c #39314B",
",	c #3E2F59",
"'	c #3C324B",
")	c #3E2E58",
"!	c #41305A",
"~	c #3F2F5A",
"{	c #3A314B",
"]	c #3B324B",
"^	c #393049",
"/	c #3B314B",
"(	c #3D2E56",
"_	c #41334B",
":	c #3F334B",
"<	c #3D324B",
"[	c #3A314A",
"}	c #383048",
"|	c #3D324A",
"1	c #322F2F",
"2	c #2F2D2E",
"3	c #302E2F",
"4	c #312E2F",
"5	c #2F2D2D",
"6	c #574064",
"7	c #533D5F",
"8	c #563F62",
"9	c #553F63",
"0	c #553F62",
"a	c #584164",
"b	c #543E61",
"c	c #574063",
"d	c #543E60",
"e	c #5A4163",
"f	c #3D2D56",
"g	c #3D2E58",
"h	c #000000",
"i	c #45212D",
"j	c #F9BF99",
"k	c #954A51",
"l	c #9C859F",
"m	c #CB7173",
"n	c #FFE0B1",
"o	c #FFFFFF",
"p	c #452721",
"q	c #F5A489",
"r	c #39314A",
"s	c #3E334C",
"t	c #8F563B",
"u	c #3E344C",
"v	c #40344C",
"w	c #262A2D",
"x	c #3E4549",
"y	c #7F8E96",
"z	c #9EB1BA",
"A	c #D3ECF9",
"B	c #BCD3DE",
"C	c #302F30",
"D	c #313132",
"E	c #564165",
"  ............................      ......+@+...............      ..............",
"................##..............  .......+$%%@##......##......  ................",
"................##..............  ...+++++%$&%+#......##......  ................",
"....####..##########....####....  +++@*%*+%$$&@###..######....  ....####..######",
"....####..##########....####...+++@*%%*%%+%$&%@++#..######....  ....####..######",
".=-;############>>##########>++@@@@@*%%*@+%&%++++++#######>>..  ..>>########,###",
"..'>############>>##########+%%**%%%**@@@@&%@+**%&%+######>>..  ..>>#######)!~~#",
"{{>>>>########>>>>########>+%***&&&&%**@@%%@@*&&&*@+####>>>>>>  >>>>>>#####,##>>",
"{>>>>>########>>>>########>+@@&&&*%&&%*@*%%%%&$$$$&*+###>>>>>>  >>>>>>#####,##{{",
">]{>>>>>##>>>>>>>>>>>>##>>>++&$$*&&&&%@&&&&&&&&$&*&&@#>>>>>>>>  >>>>>>>>##^//{]]",
">>{{>^>>##>>>>>>>>>>>>##>>+*%$$%&&$$&&@$$$&&$$$$$&*%%+>>>>>>>>  >>>>>>>>#(_:<]]{",
"  >{/[>>>>>>>>>>>>>>>>>>>+%&$&%*&$$$&*&$$$&$$&$$$$*%%@>>>>>>      >>>>>>>}|<'{{>",
"  {>/[>>>>>>>>>>>>>>>>>>>+*&&@@&$$$$&%$$$&%$$&$$$$&*%@>>>>>>      >>>>>>>>-{{>>{",
"  1  2                    +**@&&$$$&*&$$$%&$$&&$$$$@++                    23  44",
"  13                      +@@&$%$$$%*&$$&%$$$$&$$$$%+                    543 413",
".666..........      .....+@@*$$%$$$@*&$$%&$$$$%$$$$&@....................789.643",
".666..........      .....+@+*$&*$$$@*%$$*&$$$$*$$$$&@.....................0=6a 3",
".66.##..........  ........+@%&@%$$&@@%%&*&&$$&@&$$&%+.......##......##....bc66.6",
".66.##..........  ........+*%%@&$&%+*%%%*&&&&%+%&&&@........##......##....de6..6",
"66~###########..  ..####..+%%@+&&&%+&&%*@&&&%*+*&&%@####..######..########fg,#..",
"..############..  ..####..+++++%&%@+%&%@@&&*@++@**@+####..######..############..",
"##########>>####  ###########++@*@++***++++++hh++++>>>####################>>#,##",
"##########>>####  ###########++++++i+++@+jjklhhmk.>>>>####################>>####",
"{>>>>>>>>>>>>>>>  >>>>>>>>>>>>+++@+ij@%&@jnmopmjqki>>>>>>>>>####>>>>>>>>>>>>>>r>",
"s{>>>>>>>>>>>>>>  >>>>>>>>>>>>>+++@+i+*%@nnnmtjnjqi>>>>>>>>>####>>>>>>>>>>>>>>>>",
"usr>>>>>>>>>>>      >>>>>>>>>>>+@*@+ii+@jnnnjjnnqi>>>>>>>>>>>>>>>>>>>>>>>>>>>>  ",
"vr>>>>>>>>>>>>      >>>>>>>>>>>+**@+immkqjnnnnnji >>>>>>>>>>>>>>>>>>>>>>>>>>>>  ",
"3                              ++++immmmkqjjjjki                                ",
"                                  wxyywwmkmqqmi                                 ",
"    ......................      .wxxxxxyxmiiii................      ............",
"    ......................      ikqjjjqwyxki..................      ............",
"  ............####..........  ..ikjnnnjqwywkw.....####..........  ............##",
"  ............####..........  ..imnnnnnjqzyxxw....####..........  ............##",
"  ....##..##########..##....  ..iqnnnnnjkAoAyw..########..##....  ....##..######",
"  ....##..##########..##....  ..kjnnnnnqiAooAxw.########..##....  ....##..######",
"  ..>>########>>>>######>>..  ..kjnnnnjkiAoooyw###>>>>>>####>>..  ..>>########>>",
"  ..>>########>>>>######>>..  ..knnnjqqizAooozw###>>>>>>####>>..  ..>>########>>",
"  >>>>>>####>>>>######>>>>>>  >>knnnnjmiBAooAzw###########>>>>>>  >>>>>>####>>>>",
"  >>>>>>####>>>>######>>>>>>  >>knnnnnjkBAAAByw###########>>>>>>  >>>>>>####>>>>",
"  >>>>>>>>>>>>>>>>>>>>>>>>>>  >wknnnnnjizBBBzxw>>>>>####>>>>>>>>  >>>>>>>>>>>>>>",
"  >>>>>>>>>>>>>>>>>>>>>>>>>>  >wknnnnnqizzBzzw>>>>>>####>>>>>>>>  >>>>>>>>>>>>>{",
"    >>>>>>>>>>>>>>>>>>>>>>     wknnnnjmiBAoABw>>>>>>>>>>>>>>>>      >>>>>>>>>>>>",
"    >>>>>>>>>>>>>>>>>>>>>>     wknnnnnqkBoooBw>>>>>>>>>>>>>>>>      >>>>>>>>>>>>",
"                              wxkjnnnnjkooooAw                                 C",
"                             wxyiqnnnnnkooooBxw                               CD",
"......      .................wyAomnnnnnkoooAzyxw......................      ...E",
"......      .................wxzAknnnnnmAABzoAyw......................      ....",
"........  ......##............wxzknnnjjmioooAzxw........##..............  ......",
"........  ......##..............wkjjjjjqkooAzxw.........##..............  ......",
"####....  ....########..######..wiqjjjjjmixxw...####..########..####....  ....##",
"####....  ....########..######..wimqqmqjmioxw...####..########..####....  ....##",
"######..  ..##################>>wikkkimqkiowxw##########>>####>>######..  ..####",
"######..  ..##################>>wxiiiikmioAwyxw#########>>####>>######..  ..####",
"######>>  >>############>>>>####wxyoooiiiozwByw#######>>>>######>>####>>  >>####",
"######>>  >>############>>>>####wyzoooooooywzxw#######>>>>######>>####>>  >>####",
"####>>>>  >>>>########>>>>######wzAoooooooxwxw>>##>>>>>>####>>######>>>>  >>>>##",
"####>>>>  >>>>########>>>>#####wxyzoooooozyxw>>>##>>>>>>####>>######>>>>  >>>>##",
"##>>>>>>  >>>>>>##>>>>>>>>>>##>wyAozBooBzoAyw>>>>>>>>>>>>>>>>>>>##>>>>>>  >>>>>>",
"##>>>>>>  >>>>>>##>>>>>>>>>>##>wxzAooooooAzxw>>>>>>>>>>>>>>>>>>>##>>>>>>  >>>>>>",
">>>>>>      >>>>>>>>>>>>>>>>>iikwxzAooooAzxw  >>>>>>>>>>>>>>>>>>>>>>>>      >>>>",
">>>>>>      >>>>>>>>>>>>>>>>ikmikqwxxxxxxw    >>>>>>>>>>>>>>>>>>>>>>>>      >>>>",
"                            immkmqqqqqqqk                                       ",
"                            immkqqqqqqqmi                                       ",
"  ...........................kmkqqqqqqqk....................      ..............",
"  ...........................imkqqqqqqmi....................      ..............",
"................##...........imimqqqqqk.......##......##......  ................",
"................##............iikqqqqqi.......##......##......  ................",
"....####..############..####....iqqqqmi###..######..######....  ....####..######",
"....####..############..####....imqqmmk###..######..######....  ....####..######",
"..>>############>>##>>######>>..ikqqqqmi##########>>######>>..  ..>>############",
"..>>############>>##>>######>>.. imqqqqqi#########>>######>>..  ..>>############",
">>>>>>########>>>>########>>>>>> ikmqqqqi#>>>>##########>>>>>>  >>>>>>########>>",
">>>>>>########>>>>########>>>>>>  iiiiii##>>>>##########>>>>>>  >>>>>>########>>",
">>>>>>>>##>>>>>>>>>>>>##>>>>>>>>  >>>>>>>>>>>>>>>>>>##>>>>>>>>  >>>>>>>>##>>>>>>",
">>>>>>>>##>>>>>>>>>>>>##>>>>>>>>  >>>>>>>>>>>>>>>>>>##>>>>>>>>  >>>>>>>>##>>>>>>",
"  >>>>>>>>>>>>>>>>>>>>>>>>>>>>      >>>>>>>>>>>>>>>>>>>>>>>>      >>>>>>>>>>>>>>",
"  >>>>>>>>>>>>>>>>>>>>>>>>>>>>      >>>>>>>>>>>>>>>>>>>>>>>>      >>>>>>>>>>>>>>",
"                                                                                ",
"                                                                                ",
"..............      ........................      ............................  "};
