/* XPM */
static char * saida_xpm[] = {
"80 80 304 2",
"  	c #2F2E2F",
". 	c #564064",
"+ 	c #3E2F5A",
"@ 	c #39314B",
"# 	c #323A42",
"$ 	c #1A1E23",
"% 	c #0A090A",
"& 	c #34414B",
"* 	c #3A4959",
"= 	c #4B6177",
"- 	c #4A5F72",
"; 	c #4A5F73",
"> 	c #4C6278",
", 	c #51667A",
"' 	c #485D70",
") 	c #171D22",
"! 	c #4D6780",
"~ 	c #2A333C",
"{ 	c #15181B",
"] 	c #425263",
"^ 	c #3B4B5A",
"/ 	c #1A1E24",
"( 	c #0F1317",
"_ 	c #15181A",
": 	c #47596B",
"< 	c #686D84",
"[ 	c #262930",
"} 	c #1B1A22",
"| 	c #262C37",
"1 	c #57617B",
"2 	c #434B58",
"3 	c #4B6074",
"4 	c #14151C",
"5 	c #2F3C49",
"6 	c #4D637A",
"7 	c #465A6C",
"8 	c #495E72",
"9 	c #27313A",
"0 	c #030204",
"a 	c #1B2329",
"b 	c #425364",
"c 	c #4B6175",
"d 	c #1C242B",
"e 	c #4D5F72",
"f 	c #384957",
"g 	c #010101",
"h 	c #3B4653",
"i 	c #5D546F",
"j 	c #574265",
"k 	c #5A4768",
"l 	c #8C9196",
"m 	c #111419",
"n 	c #1B1F26",
"o 	c #575E78",
"p 	c #35424D",
"q 	c #1F2934",
"r 	c #171C23",
"s 	c #465D72",
"t 	c #354453",
"u 	c #536B83",
"v 	c #4D647A",
"w 	c #1E2933",
"x 	c #191E24",
"y 	c #303747",
"z 	c #3F515F",
"A 	c #767878",
"B 	c #594567",
"C 	c #333E49",
"D 	c #22272B",
"E 	c #222B34",
"F 	c #505F7A",
"G 	c #161C22",
"H 	c #4C657B",
"I 	c #2D3C48",
"J 	c #08090B",
"K 	c #3B4B5B",
"L 	c #57627C",
"M 	c #26313A",
"N 	c #0B0E12",
"O 	c #34424D",
"P 	c #2D3944",
"Q 	c #3E5263",
"R 	c #323B44",
"S 	c #625D79",
"T 	c #52687C",
"U 	c #2B3641",
"V 	c #14171A",
"W 	c #584568",
"X 	c #353639",
"Y 	c #262E37",
"Z 	c #3C4E62",
"` 	c #43375E",
" .	c #5D636B",
"..	c #0E1216",
"+.	c #42365F",
"@.	c #57506C",
"#.	c #4E6881",
"$.	c #464C53",
"%.	c #3C434B",
"&.	c #616B82",
"*.	c #545673",
"=.	c #DED16D",
"-.	c #DEDF90",
";.	c #363432",
">.	c #3A2817",
",.	c #271509",
"'.	c #2C180D",
").	c #201920",
"!.	c #1D120E",
"~.	c #1A0C05",
"{.	c #332113",
"].	c #42464A",
"^.	c #ECE056",
"/.	c #8F968E",
"(.	c #F0DD2A",
"_.	c #FDEC07",
":.	c #55351C",
"<.	c #674427",
"[.	c #75492A",
"}.	c #4B2614",
"|.	c #683F23",
"1.	c #825534",
"2.	c #7C5534",
"3.	c #653D22",
"4.	c #462A17",
"5.	c #532B16",
"6.	c #734A2B",
"7.	c #88552F",
"8.	c #431F10",
"9.	c #3D3851",
"0.	c #433F54",
"a.	c #90978F",
"b.	c #EEDB4D",
"c.	c #FAE517",
"d.	c #4A5158",
"e.	c #485969",
"f.	c #552C19",
"g.	c #8D613B",
"h.	c #966942",
"i.	c #9A6A42",
"j.	c #97693F",
"k.	c #92653E",
"l.	c #60361D",
"m.	c #895D38",
"n.	c #946641",
"o.	c #B58052",
"p.	c #FAC90E",
"q.	c #7E8184",
"r.	c #424B57",
"s.	c #573A22",
"t.	c #AA764C",
"u.	c #B97F53",
"v.	c #5C351C",
"w.	c #AD794D",
"x.	c #B17B4F",
"y.	c #A4744A",
"z.	c #C28556",
"A.	c #886238",
"B.	c #444157",
"C.	c #8E968A",
"D.	c #F3AF11",
"E.	c #ED8A17",
"F.	c #6B6E71",
"G.	c #8A8E93",
"H.	c #A37347",
"I.	c #9F7248",
"J.	c #3B3C3E",
"K.	c #EE9014",
"L.	c #E8A431",
"M.	c #8C9296",
"N.	c #BB8254",
"O.	c #6F4E31",
"P.	c #4C4F53",
"Q.	c #D3AD61",
"R.	c #A39472",
"S.	c #85888B",
"T.	c #EA7617",
"U.	c #A39286",
"V.	c #696E85",
"W.	c #C48759",
"X.	c #A36A50",
"Y.	c #9B7249",
"Z.	c #4B382E",
"`.	c #C64619",
" +	c #D96626",
".+	c #665973",
"++	c #4A321C",
"@+	c #B47E51",
"#+	c #B48D68",
"$+	c #C83E10",
"%+	c #BA3418",
"&+	c #5B4869",
"*+	c #60516F",
"=+	c #C57058",
"-+	c #706A81",
";+	c #5D4C6B",
">+	c #4F5053",
",+	c #919792",
"'+	c #5C4A6A",
")+	c #AA7C53",
"!+	c #54585D",
"~+	c #9A9CA2",
"{+	c #3F315B",
"]+	c #453A5F",
"^+	c #44395F",
"/+	c #8A6964",
"(+	c #862719",
"_+	c #822E24",
":+	c #896443",
"<+	c #4B4465",
"[+	c #AA8756",
"}+	c #676057",
"|+	c #BAA992",
"1+	c #63676B",
"2+	c #3E4346",
"3+	c #6D5416",
"4+	c #4D5A75",
"5+	c #623B1E",
"6+	c #997551",
"7+	c #3E3850",
"8+	c #6E572F",
"9+	c #926F4F",
"0+	c #4B5A70",
"a+	c #827055",
"b+	c #A46329",
"c+	c #D28F5E",
"d+	c #4B4D61",
"e+	c #494E54",
"f+	c #4B514D",
"g+	c #94959A",
"h+	c #8E9296",
"i+	c #393A3C",
"j+	c #37383A",
"k+	c #808084",
"l+	c #515356",
"m+	c #8E9195",
"n+	c #302F31",
"o+	c #818185",
"p+	c #828286",
"q+	c #8F9396",
"r+	c #564164",
"s+	c #87848E",
"t+	c #86838D",
"u+	c #808085",
"v+	c #8E9295",
"w+	c #817575",
"x+	c #909399",
"y+	c #545961",
"z+	c #43300A",
"A+	c #A68129",
"B+	c #917124",
"C+	c #40355D",
"D+	c #564567",
"E+	c #574668",
"F+	c #574769",
"G+	c #57647D",
"H+	c #443F65",
"I+	c #574E6E",
"J+	c #57657E",
"K+	c #95999D",
"L+	c #655974",
"M+	c #584366",
"N+	c #96969B",
"O+	c #5C5B72",
"P+	c #767686",
"Q+	c #787787",
"R+	c #80808E",
"S+	c #47496A",
"T+	c #57637C",
"U+	c #5A5777",
"V+	c #585472",
"W+	c #4C5373",
"X+	c #4C5473",
"Y+	c #4D5A78",
"Z+	c #505F7B",
"`+	c #545F7E",
" @	c #586C85",
".@	c #596E87",
"+@	c #5E7189",
"@@	c #5E7691",
"#@	c #586E86",
"$@	c #3A324C",
"%@	c #39324C",
"&@	c #4F6076",
"*@	c #303032",
"=@	c #2F2E30",
"-@	c #586F86",
";@	c #574064",
">@	c #574164",
",@	c #584164",
"'@	c #564063",
")@	c #574063",
"!@	c #584264",
"~@	c #333030",
"{@	c #312E2F",
"]@	c #34302F",
"^@	c #363230",
"/@	c #3A3331",
"(@	c #594263",
"_@	c #563F62",
":@	c #5A4363",
"<@	c #543F62",
"[@	c #533F61",
"}@	c #523E60",
"    . . . . . . . . . . . . . . . . . . . . . . . . . . . .             . . . . . . . . . . . . . . . . . . . . . . . .             . . . . . . . . . . . . . . ",
". . . . . . . . . . . . . . . . + + . . . . . . . . . . . . . .     . . . . . . . . . . . . + + . . . . . . + + . . . . . .     . . . . . . . . . . . . . . . . ",
". . . . . . . . . . . . . . . . + + . . . . . . . . . . . . . .     . . . . . . . . . . . . + + . . . . . . + + . . . . . .     . . . . . . . . . . . . . . . . ",
". . . . + + + + . . + + + + + + + + + + . . . . + + + + . . . .     . . . . + + + + . . + + + + + + . . + + + + + + . . . .     . . . . + + + + . . + + + + + + ",
". . . . + + + + . . + + + + + + + + + + . . . . + + + + . . . .     . . . . + + + + . . + + + + + + . . + + + + + + . . . .     . . . . + + + + . . + + + + + + ",
". . @ @ + + + + + + + + + + + + @ @ + + + + + + + + + + @ @ . .     . . @ @ + + + + + + + + + + + + + + + + + + + + @ @ . .     . . @ @ + + + + + + + + + + + + ",
". . @ @ + + + + + + + + + + + + @ @ + + + + + + + + + + @ @ . .     . . @ @ + + + + + + + + + + + + + + + + + + + + @ @ . .     . . @ @ + + + + + + + + + + + + ",
"@ @ @ @ @ @ + + + + + + + + @ @ @ @ + + + + + + + + @ @ @ @ @ @     @ @ @ @ @ @ + + @ @ @ @ + + + + + + + + + + @ @ @ @ @ @     @ @ @ @ @ @ + + + + + + + + @ @ ",
"@ @ @ @ @ @ + + + + + + + + @ @ @ @ + + + + + + + + @ @ @ @ @ @     @ @ @ @ @ @ + + @ @ @ @ + + + + + + + + + + @ @ @ @ @ @     @ @ @ @ @ @ + + + + + + + + @ @ ",
"@ @ @ @ @ @ @ @ + + @ @ @ @ @ @ @ @ @ @ @ @ + + @ @ @ @ @ @ @ @     @ @ @ @ @ @ @ @ @ @ @ @ @ @ @ @ @ @ + + @ @ @ @ @ @ @ @     @ @ @ @ @ @ @ @ + + @ @ @ @ @ @ ",
"@ @ @ @ @ @ @ @ + + @ @ @ @ @ @ @ @ @ @ @ @ + + @ @ @ @ @ @ @ @     @ @ @ @ @ @ @ @ @ @ @ @ @ @ @ @ @ @ + + @ @ @ @ @ @ @ @     @ @ @ @ @ @ @ @ + + @ @ @ @ @ @ ",
"    @ @ @ @ @ @ @ @ @ @ @ @ @ @ @ @ @ @ @ @ @ @ @ @ @ @ @ @             @ @ @ @ @ @ @ @ @ @ @ @ @ @ @ @ @ @ @ @ @ @ @ @             @ @ @ @ @ @ @ @ @ @ @ @ @ @ ",
"    @ @ @ @ @ @ @ @ @ @ @ @ @ @ @ @ @ @ @ @ @ @ @ @ @ @ @ @             @ @ @ @ @ @ @ @ @ @ @ @ @ @ @ @ @ @ @ @ @ @ @ @             @ @ @ @ @ @ @ @ @ @ @ @ @ @ ",
"                                                                                                                                                                ",
"                                                    # $ % & & * = - ; > , ' ) ! ~ { ] ^ ~ / ( _ :                                                               ",
". . . . . . . . . . . . . .             . . . < [ } | 1 . 2 3 4 5 6 7 7 7 8 9 0 a b c d e     f g h i j . k . . . . . . . . . . . . . . . . . . . . . . . .     ",
". . . . . . . . . . . . . .             . . l m n . . . o p b q r c 7 s s c 7 t u v w x     v y z g g A . . . . . . . . . . . . . . . . . . . . . . . . . .     ",
". . . . + + . B B . . . . . . .     . . . C w x D . . . E E + F G : c H c 7 7 c I 7 g f . C J K . C C G b . . . . . . . + + . . . . . . + + . . . . . . . . . . ",
". . . . + + . . . . . . . . . .     . . ~ G L 8 D L . . 8 ~ t + w M : N O H H z P O t u . b Q   . . . w M R S . . . . . + + . . . . . . + + . . . . . . . . . . ",
". . + + + + + + + + + + + + . .     . T U c 7 c b I + + + T u + c N J d V N I O b J T . o .     . . G t u M V + . . + + + + + + . . + + + + + + + + + + + + . . ",
". . + + + + + + + + + + + + . W X   Y Y v s 7 8 7 J Z + 8 8 s v + K N c Q f V Q f C . . . H U u . E G b : H x g . . + + + + + + . . + + + + + + + + + + + + . . ",
"+ + + + + + + + + ` @ @ + + + + X  .N v s 7 8 7 v O ..: Y w d C + + d b H H H H M @ @ 8 Z w :   f J s I b T G g ~ +.+ + + + + + + + + + + + + + + + @ @ + + + + ",
"+ + + + + @.+ + + + @ @ + + + + T N b 8 s 8 8 8 7 v Y V 8 #.H 8 Q H x d Q f K K U Q H M ..7 8 $.d t 8 8 s c I C %.K &.*.+ + + + + + + + + + + + + + @ @ + + + + ",
"@ @ @ @ @ @ @ =.-.@ @ @ @ @ @ @ D ..u 7 7 8 7 8 T P ;.>.J ,.,.'.).!.!.'.'.'.!.~.V '.'.{.{.~.~.].M Q v C 7 s 8 T h J @ @ + + + + @ @ @ @ @ @ @ @ @ @ @ ^./.@ @ @ ",
"@ @ @ @ @ =.(._.-.@ @ @ @ @ @ A d V t H 8 s c f ].:.<.[.}.|.[.1.2.3.4.[.2.1.[.5.3.6.2.7.|.8.3.<.5.).Q D Q s s H b J : 9.+ + + + @ @ @ @ @ @ @ @ @ ^.(._.@ @ @ @ ",
"@ 0.a.@ b._.c._.-.@ @ @ @ @   A d.e.d w v s 8 ).f.g.[.<.8.1.h.i.h.6.:.h.j.j.k.l.6.j.j.i.m.f.2.n.o.g.;.w 7 c c Q D ~ J @ @ @ @ @ @ @ @ @ @ @ 0.@ (._._.c.a.@     ",
"@ @ 0.b.c.c.c.p.=.@ @ @ @ @   q.r.8   J t 7 V s.1.7.[.[.f.k.t.u.t.1.v.t.w.x.y.|.m.y.w.o.i.v.k.t.o.z.A.).Q H K J Y h O @ @ @ @ @ @ @ 0.@ @ @ @ (.c.c.c.c.=.B.    ",
"    C.(.p.D.D.E.D.          F.G.  U e Q ..C ~.6.[.7.j.i.5.m.y.w.y.1.v.y.t.t.H.|.1.y.y.w.h.:.m.I.o.o.j.8.P c ..a P :   O             J.        p.p.D.D.K.L.      ",
"    D.K.K.K.E.E.L.          A M.  c 8   K ;.8.6.<.t.t.j.5.g.t.w.H.2.3.y.t.w.y.|.1.y.w.w.j.v.A.I.N.x.A.l.O.G w   b     ~ P.                =.D.K.K.K.E.E.Q.      ",
"  R.D.K.K.K.K.E.E.. . . . . q.. . . . . 8 :.4.3.7.z.t.h.5.m.t.x.y.1.v.y.t.w.y.|.1.y.t.w.j.v.g.H.N.N.g.5.A...#.. . . . : S..             . Q.D.E.K.E.K.E.L.. . . ",
"    E.T.T.T.E.T.T.U.. . . . V.. . D b . V 3.}.|.k.W.t.h.5.g.t.w.y.1.l.X.t.t.H.|.1.y.t.w.j.v.g.H.N.N.k.5.Y.Z.L . T o . i A .             . W.E.E.T.T.E.T.T.. . . ",
"    `. +`.`. +T..+. . . . . M.+ + + ~ U ++6.}.2.y.z.t.h.f.m.y.@+y.1.s.y.w.t.y.|.m.y.t.w.h.v.g.j.N.o.k.5.t.2.t b G E . . F.. . .     . . . #+$+ +%+`.T. +&+*++ + ",
"    %+%+`.%+`.=+-+. . . . . F.: : 7 s E :.[.}.1.H.z.t.n.f.g.t.w.y.1.l.y.t.w.H.|.m.y.y.x.h.v.g.I.u.x.k.5.H.n.g d 7 b : c q.. . .     . . . X.%+%+`.%+`.. ;+k + + ",
"  >+=+`.%+%+`.,+. '++ + + + g g g g g g <.[.}.h.y.z.t.i.5.g.y.w.y.1.v.y.w.t.y.|.1.y.t.)+h.v.g.I.o.u.g.f.I.h.g g g g g g !+. . .     . . '+~+ +`.%+%+`.{+]+^++ + ",
"    /+(+_+(+(+R.. '++ + + + r...g g U Y v.6.}.k.H.z.t.i.5.m.y.@+y.1.l.y.t.t.y.3.1.t.t.@+h.v.A.I.o.o.g.f.y.g.D f f f K t  .. . .     . . . . :+(+_+_+_+@.+ <++ + ",
"  A R.Q.[+R.+ R.` + + + + + Y V b b f O <.6.}.k.y.z.t.i.5.g.t.w.y.1.l.H.t.t.t.|.1.y.y.w.h.v.g.H.u.o.n.f.y.A.Z v d Y w I @ @ . .     . . @ }+#+R.[+Q.|+/++ + @ @ ",
"  F.<.2.2.A.}+1++ + + + + + a u @ @ 8 ..3.[.}.k.y.z.t.h.5.m.y.@+y.1.l.y.t.t.y.|.1.y.w.x.j.v.g.I.N.u.k.5.H.g.2+V t c 8 G g @ . .     . . @  .3+[.2.2.}+F.+ + @ @ ",
"    ~+<.Y.[+R.@ + + + + @ @ @ @ + 4++ C 5+[.4.h.H.z.t.h.f.g.y.@+y.1.v.X.t.t.y.|.1.y.t.)+h.v.g.I.o.x.k.5.H.A.h + + + @ T g @ @ @     @ @ @ @ /+7.[+6+M.+ @ @ @ @ ",
"    @ 6.i.y.@ @ + + + + @ @ @ @ + + + %.5+[.}.k.H.z.t.h.f.m.t.x.y.1.s.H.t.t.y.|.1.t.t.x.h.v.g.I.N.u.g.5.H.m.h + 4++ @ @ u @ @ @     @ @ @ @ @ [.y.6++ + @ @ @ @ ",
"    7+8+[+9+@ @ @ @ @ @ @ @ @ @ @ @ @ f l.6.}.k.y.z.t.i.f.m.H.x.y.7.3.y.t.)+y.|.1.y.t.w.j.:.g.y.u.u.g.f.H.m.K + @ @ @ @ 0+@ @ @     @ @ @ @ @ 6.#+a+@ @ @ @ @ @ ",
"    @ }+b+:+@ @ @ @ @ @ @ @ ~ E M M M G 3.6.}.g.y.z.y.n.5.m.t.w.H.2.:.I.t.y.H.|.1.y.y.w.k.v.m.i.u.@+g.5.I.k.x M E E E ~ d @ @ @     @ @ @ @ @ O.b+F.@ @ @ @ @ @ ",
"      A O. .@ @ @ 9.@ @ @ @ g g g g g g [.2.5.i.@+c+o.y.v.i.@+N.o.m.3.w.N.N.@+<.g.@+@+z.H.3.i.x.W.W.i.v.w.i.g g g g g g g @             @ @ @ !+6.d+@ @ @ 9.@ @ ",
"  X     @ @ @ @ @ @ @ @ @ @ b c M V b M '.{.,.++s.<.s.++,.++s.3.s.4.'.s.s.s.v.{.4.s.s.s.s.,.5.s.<.<.5.,.s.4.~ s b d t 7 f @           X @ 9.@ @ @ 9.@ @ @ @ @ @ ",
"                            e f ~ b E O ].!+e+r.e+e+e+e+e+e+e+e+e+e+e+e+e+e+e+d.e+e+e+e+e+d.e+e+r.e+f+e+!+R U K d ..a c Q                                       ",
"                            7 J t v 8 R S.g+~+  ~+g+~+S.  P.M.h+g+i+  j+k+~+g+l+  M.m+m+g+n+n+o+p+q+G.  >+S.~ D z v ..f :                                       ",
". . . . . .             . . Q J t 8 v R /+r+S.j s+g+g+M.S.~+s+g+s+M.M.g+t+t+t+S.G.u+v+h+w+S.~+g+x+g+G.M.~+q.R T s T O a Q . . . . . . . . .             . . . . ",
". . . . . .             . . T t f c c ~ e+y+!+!+y+!+!+!+!+!+y+y+!+!+!+y+!+y+y+y+!+!+!+!+y+!+y+!+d.y+!+!+y+f+P 8 v t f t K . . . . . . . . .             . . . . ",
". . . . . . . .     . . . . T v v c T ~ ,.{.~.>.++s.:.4.~.4.++:.++>.,.++:.++++,.{.5.++++++,.>.++s.:.4.,.++{.P T c : 8 u : . . . . . . . . . . .     . . . . . . ",
". . . . . . . .     . . . . K t t f K E <.1.5.i.o.c+o.H.f.j.x.z.o.m.3.w.N.o.)+[.g.@+@+z.H.5+i.w.W.W.h.v.o.j.D z f f f f O . . . . . . . . . . .     . . . . . . ",
"+ + + + . . . .     . . . . d d a x a V 3.[.}.k.I.N.t.k.5.g.t.w.y.2.v.H.w.H.y.3.1.y.y.t.h.v.A.I.u.@+k.v.H.A.V a a a a a ..+ . . + + + + . . . .     . . . . + + ",
"+ + + + . . . .     . . . . + 7 + + + f l.6.}.k.H.z.t.j.5.g.y.x.y.1.l.y.w.t.y.|.1.y.t.x.h.:.g.I.o.w.O.'.k.A.f + + + + + 4++ . . + + + + . . . .     . . . . + + ",
"+ + + + + + . .     . . + + M t + + + %.5+6.}.k.y.z.t.h.f.m.t.x.y.2.v.y.w.w.H.3.1.t.t.x.h.:.g.I.N.h.3+8+8+A.O + @ f d O 4++ @ @ + + + + + + . .     . . + + + + ",
"+ + + + + + . .     . . + + b 4++ + + t 3.6.}.n.H.z.t.h.5.g.y.x.y.2.v.H.)+t.X.|.1.y.t.x.h.v.g.H.z.A.p.-.Q.3+K + @ 8 z f ..+ @ @ + + + + + + . .     . . + + + + ",
"+ + + + + + @ @     @ @ + + + + + + + O 5+6.}.n.H.z.w.j.5.g.t.x.t.7.v.H.t.x.y.<.1.t.t.x.h.v.g.y.<.++D.b.L.>.O @ @ @ + + z + + + @ @ + + + + @ @     @ @ + + + + ",
"+ + + + + + @ @     @ @ + + + + + + + %.v.[.}.n.H.z.t.h.5.g.y.x.y.1.s.y.t.t.y.|.1.I.t.x.h.v.m.y.<.z+A+p.B+8+f+@ @ @ 4++ u + + + @ @ + + + + @ @     @ @ + + + + ",
"+ + + + @ @ @ @     @ @ @ @ + + + + + h v.[.}.k.y.z.t.h.5.m.y.x.y.1.l.y.t.)+y.|.1.y.t.x.h.v.m.t.8+3+s.a :+A+f @ + + + + 0+@ + + + + + + @ @ @ @     @ @ @ @ + + ",
"+ + + + @ @ @ @     @ @ @ @ y U P P P x 3.[.}.n.H.W.t.i.f.g.H.x.y.1.l.y.t.t.y.|.m.y.y.)+h.v.A.t.t.3+3+B+z+4.x C P P U I w @ + + + + + + @ @ @ @     @ @ @ @ + + ",
"+ + @ @ @ @ @ @     @ @ @ @ U U ~ ~ U G 3.6.}.h.y.=+t.i.f.g.H.x.H.1.s.y.w.w.y.|.1.y.w.w.h.v.m.I.z.7.3+3+3+O.D ~ M U U U d @ @ @ + + @ @ @ @ @ @     @ @ @ @ @ @ ",
"+ + @ @ @ @ @ @     @ @ @ @ u 8 v v u R 3.6.}.g.H.W.t.i.5.g.t.x.y.7.v.H.t.t.H.|.1.y.t.x.h.v.A.I.N.x.<.!.9+k.R T T v v T : @ @ @ + + @ @ @ @ @ @     @ @ @ @ @ @ ",
"@ @ @ @ @ @             @ @ T v 7 c v ~ 5+6.}.n.y.z.X.i.5.g.H.x.y.1.v.H.t.t.y.|.1.y.w.x.h.v.g.H.N.N.j.v.H.m.R c : : : s b @ @ @ @ @ @ @ @ @             @ @ @ @ ",
"@ @ @ @ @ @             @ @ C f #.C : ~ 5+6.}.k.H.W.w.h.5.g.H.x.y.1.v.y.t.w.y.|.1.t.w.w.j.v.k.j.u.o.A.5.H.m.~ v 8 c v c U @ @ @ @ @ @ @ @ @             @ @ @ @ ",
"                            E w y x Q I l.6.}.j.y.z.t.h.f.g.t.x.y.1.s.H.t.w.y.|.1.y.y.w.j.v.g.H.N.x.g.5.H.g.P u 8 M ~ b G                                       ",
"                            #.: Y s T ~ 3.6.}.k.y.W.t.h.f.g.y.x.y.1.v.X.t.t.y.|.1.y.t.w.j.v.g.H.o.N.k.5.H.m.~ v : ~ E b 7                                       ",
"    . . . . . . . . . . . . v s T 8 H ~ 5+6.}.k.H.z.t.h.f.g.y.x.H.1.3.y.t.)+y.|.1.y.t.w.j.v.m.H.N.o.k.5.H.k.R v 8 L u v Z           . . . . . . . . . . . . . . ",
"    . . . . . . . . . . . . : z Z b : Y v.[.}.n.Y.z.y.h.5.g.H.w.H.2.:.I.t.t.H.3.1.H.y.x.n.:.m.I.u.x.m.f.I.m.~ : b K b b t           . . . . . . . . . . . . . . ",
". . . . . . . . . . . . . . G x G x V ..6.2.5.i.x.c+o.y.f.i.o.N.u.m.3.@+u.u.)+6.m.@+o.N.I.3.h.@+W.W.i.v.x.i.V G G G G G V .     . . . . . . . . . . . . . . . . ",
". . . . . . . . . . . . . . . o + + . t ~.'.~.{.>.++>.>.~.>.>.++++{.,.4.4.>.4.,.{.>.4.++>.!.>.4.++++{.!.>.{.D C+D+E+E+F+G+.     . . . . . . . . . . . . . . . . ",
". . . . + + + + . . + + + + + + + + + O !+F.1+F.1+ . . .F.1+ . .y+1+F.F. . . .1+F. . . . .F.1+y+ . . .F.1+ .;.#.H+: u I+J+.     . . . . + + + + . . + + + + + + ",
". . . . + + + + . . + + + + E : b + + h S.M.K+. g+g+K+S.L+M+M.N+M.~+. ~+g+N+M.O++ g+g+g+G.P+Q+g+g+g+G.. R+g+2+v S+7 T+U+V+.     . . . . + + + + . . + + + + + + ",
". . @ @ + + + + + + + + + + : C v @ + f S.K+M.M.K+K+K+g+G.g+N+N+~+G.M.~+N+K+N+S.~+~+~+~+M.q.~+g+N+K+M.G.g+K+].#.W+X+a U t .     . . @ @ + + + + + + + + + + + + ",
". . @ @ + + + + + + + + + + + + @ 0++ O ;.].].].2+2+].].].].].].2+].].C 2+].2+].C %.%.C ].f+].].].2+].].2+].D v Y+Z+P f u .     . . @ @ + + + + + + + + + + + + ",
"@ @ @ @ @ @ + + + + + + + + @ @ @ @ + h '.}.,.v.<.6.<.v.,.v.<.<.<.5.{.<.<.<.3.{.5.3.<.O.s.'.v.3.6.O.:.,.<.f.~ `+ @.@+@@@#@@     @ @ @ @ @ @ + + + + + + + + @ @ ",
"@ @ @ @ @ @ + + + + + + + + K C t t f E |.2.5.I.o.c+u.H.f.i.x.z.u.m.3.w.u.o.x.6.m.@+u.N.H.3.i.w.W.W.i.v.@+h.~ f t h t t P @     @ @ @ @ @ @ + + + + + + + + @ @ ",
"@ @ @ @ @ @ @ @ + + @ @ @ @ w E D D E V |.6.}.k.y.N.y.h.5.m.H.w.I.1.v.I.t.t.I.|.1.H.y.w.n.v.A.I.x.o.g.f.i.n.V E d w E E a @     @ @ @ @ $@%@@ @ + + @ @ @ @ @ @ ",
"@ @ @ @ @ @ @ @ + + @ @ @ @ u v #.v &@R l.[.}.k.y.W.t.h.5.k.t.@+y.1.l.H.w.w.H.|.1.y.t.w.h.:.g.I.u.N.k.5.H.A.R u T H v H 7 @     @ @ @ @ @ @ @ @ + + @ @ @ @ @ @ ",
"    @ @ @ @ @ @ @ @ @ @ @ @ v z V 8 8 ~ 3.[.}.n.y.N.t.h.5.g.y.w.H.1.s.y.w.t.y.|.1.y.w.w.h.v.g.I.N.x.k.5.y.g.~ c 8 ~ b v Z           @ @ @ @ @ @ @ @ @ @ @ @ @ @ ",
"    @ @ @ @ @ @ @ @ @ @ @ @ #.I P b f C l.6.}.k.y.z.t.h.5.m.t.@+y.1.v.y.t.w.y.|.m.y.t.x.h.:.g.H.N.x.n.5.y.A.C v z R E s K           @ @ @ @ @ @ @ @ @ @ @ @ @ @ ",
"                            v U 7 7 v C 3.6.}.k.y.z.y.n.5.m.t.@+y.1.v.y.t.t.y.3.1.y.y.x.h.v.g.I.u.o.g.f.H.A.M f f 8 x K Q                             *@        ",
"                          =@#.v c c T ~ 3.6.}.n.y.z.t.h.f.m.y.x.t.1.3.y.t.t.H.|.1.X.t.@+h.:.g.H.N.u.g.5.H.g.a c v 8 -@u :                             *@        ",
". . . . . . . . . . . . . .             . . . . . ;@. . . . . >@>@. . >@>@,@>@'@)@!@!@!@~@{@]@^@/@/@(@_@:@(@<@<@<@<@[@[@}@. . . . . . . . . . . . . . . . .     "};
